<?xml version="1.0" encoding="UTF-8" standalone="no" ?>
<!DOCTYPE svg PUBLIC "-//W3C//DTD SVG 1.1//EN" "http://www.w3.org/Graphics/SVG/1.1/DTD/svg11.dtd">
<svg xmlns="http://www.w3.org/2000/svg" xmlns:xlink="http://www.w3.org/1999/xlink" version="1.1" width="640" height="480" viewBox="0 0 640 480" xml:space="preserve">
<desc>Created with Fabric.js 3.6.6</desc>
<defs>
</defs>
<g transform="matrix(1 0 0 1 783 448.2)" clip-path="url(#CLIPPATH_78)"  >
<clipPath id="CLIPPATH_78" >
	<rect transform="matrix(1 0 0 1 -496.5 -220.51)" clip-path="url(#undefined)" x="-501.745" y="-250.87" rx="0" ry="0" width="1003.49" height="501.74" />
</clipPath>
<path style="stroke: none; stroke-width: 1; stroke-dasharray: none; stroke-linecap: butt; stroke-dashoffset: 0; stroke-linejoin: miter; stroke-miterlimit: 4; fill: rgb(0,27,45); fill-rule: nonzero; opacity: 1;"  transform=" translate(-968.5, -653.19)" d="M 983.3 662.44 c -0.42 -13.01 -2.2 -26 -5.26 -38.65 c -0.35 -1.44 -1.36 -2.32 -2.54 -2.68 c 0.87 -0.73 1.14 -2.29 0.19 -3.28 c -0.9 -0.92 -2.3 -0.81 -3.28 -0.12 c -1.04 0.73 -1.64 2.07 -2.23 3.16 c -2.67 4.94 -4.67 10.24 -6.63 15.49 c -3.86 10.34 -6.63 21.18 -8.31 32.08 c -0.45 2.89 -0.84 5.79 -1.16 8.7 c -0.27 2.47 -0.88 5.3 -0.14 7.74 c 0.47 1.55 1.49 2.85 2.9 3.63 c 1.63 0.91 3.42 0.73 5.2 0.61 c 2.87 -0.19 5.73 -0.38 8.6 -0.57 c 2.78 -0.18 5.98 -0.02 8.47 -1.45 c 2.94 -1.68 3.75 -4.69 3.96 -7.84 c 0.37 -5.58 0.42 -11.21 0.23 -16.82 Z" stroke-linecap="round" />
</g>
<g transform="matrix(1 0 0 1 767.36 428.33)" clip-path="url(#CLIPPATH_79)"  >
<clipPath id="CLIPPATH_79" >
	<rect transform="matrix(1 0 0 1 -480.88 -200.65)" clip-path="url(#undefined)" x="-501.745" y="-250.87" rx="0" ry="0" width="1003.49" height="501.74" />
</clipPath>
<path style="stroke: none; stroke-width: 1; stroke-dasharray: none; stroke-linecap: butt; stroke-dashoffset: 0; stroke-linejoin: miter; stroke-miterlimit: 4; fill: rgb(252,17,133); fill-rule: nonzero; opacity: 1;"  transform=" translate(-952.87, -633.33)" d="M 986.56 588.37 c -0.3 -2.87 -0.69 -5.73 -1.17 -8.58 c -0.91 -5.3 -2.21 -10.52 -3.85 -15.64 c -1.05 -3.26 -5.48 -3.96 -7.3 -0.95 c -13.14 21.66 -24.98 44.09 -35.42 67.17 c -5.27 11.64 -10.19 23.43 -14.76 35.36 c -1.14 2.97 -2.25 5.96 -3.35 8.95 c -1.19 3.26 -2.26 6.53 -1.71 10.04 c 1 6.39 7.34 8.76 12.78 10.37 c 5.18 1.53 10.8 2.71 16.22 2.24 c 2.2 -0.19 4.43 -0.58 6.5 -1.4 c -0.28 2.76 -0.55 5.53 -0.84 8.29 c -0.14 1.33 2.09 1.63 2.34 0.32 c 0.66 -3.56 1.44 -7.09 2.17 -10.64 c 0.72 -0.53 1.39 -1.15 1.8 -1.86 c 0.72 -1.23 0.81 -2.89 0.8 -4.28 c -0.01 -0.73 -0.45 -1.38 -1.06 -1.72 c 0.66 -3.49 1.33 -6.99 2.01 -10.48 c 1.9 -9.68 3.96 -19.33 6.16 -28.94 c 2.03 -8.84 4.12 -17.71 7.29 -26.22 c 1.47 -3.96 3.49 -7.76 5.56 -11.49 c 2.18 -3.93 5.18 -7.61 5.9 -12.17 c 0.44 -2.8 0.22 -5.56 -0.07 -8.37 Z" stroke-linecap="round" />
</g>
<g transform="matrix(1 0 0 1 555.12 483.76)" clip-path="url(#CLIPPATH_80)"  >
<clipPath id="CLIPPATH_80" >
	<rect transform="matrix(1 0 0 1 -268.63 -256.09)" clip-path="url(#undefined)" x="-501.745" y="-250.87" rx="0" ry="0" width="1003.49" height="501.74" />
</clipPath>
<path style="stroke: none; stroke-width: 1; stroke-dasharray: none; stroke-linecap: butt; stroke-dashoffset: 0; stroke-linejoin: miter; stroke-miterlimit: 4; fill: rgb(252,17,133); fill-rule: nonzero; opacity: 1;"  transform=" translate(-740.62, -688.76)" d="M 740.62 688.76 c -0.01 0 -0.01 0.01 -0.02 0.01 c 0.01 0 0.02 0 0.03 0 c 0 0 0.01 -0.01 0.01 -0.01 s -0.01 0 -0.02 0 Z" stroke-linecap="round" />
</g>
<g transform="matrix(1 0 0 1 -196.77 23.61)" clip-path="url(#CLIPPATH_81)"  >
<clipPath id="CLIPPATH_81" >
	<rect transform="matrix(1 0 0 1 483.26 204.07)" clip-path="url(#undefined)" x="-501.745" y="-250.87" rx="0" ry="0" width="1003.49" height="501.74" />
</clipPath>
<path style="stroke: none; stroke-width: 1; stroke-dasharray: none; stroke-linecap: butt; stroke-dashoffset: 0; stroke-linejoin: miter; stroke-miterlimit: 4; fill: rgb(255,80,4); fill-rule: nonzero; opacity: 1;"  transform=" translate(11.27, -228.61)" d="M 12.75 173.11 c -10.78 -1.52 -21.65 -1.9 -32.49 -0.84 c -2.93 0.29 -5.85 0.66 -8.76 1.12 c -0.66 0.1 -1.27 0.28 -1.86 0.5 c -0.16 -1.82 -0.41 -3.64 -0.51 -5.47 c -0.12 -2.23 -3.27 -2.2 -3.45 0 c -0.32 3.86 -0.95 7.63 -1.11 11.51 c -0.15 3.84 -0.46 7.67 -0.67 11.51 c -0.41 7.67 -0.59 15.35 -0.87 23.02 c -0.55 15.34 -0.67 30.7 -0.89 46.04 c -0.13 8.67 -0.25 17.35 -0.38 26.02 c -0.02 1.68 1.25 3.46 2.93 3.84 c 1.63 0.37 3.72 -0.21 4.5 -1.83 c 13.64 -28.14 26.07 -56.86 37.28 -86.05 c 3.12 -8.12 6.14 -16.28 9.07 -24.47 c 0.66 -1.83 -0.76 -4.61 -2.79 -4.9 Z" stroke-linecap="round" />
</g>
<g transform="matrix(1 0 0 1 -192.26 469.86)" clip-path="url(#CLIPPATH_82)"  >
<clipPath id="CLIPPATH_82" >
	<rect transform="matrix(1 0 0 1 478.75 -242.18)" clip-path="url(#undefined)" x="-501.745" y="-250.87" rx="0" ry="0" width="1003.49" height="501.74" />
</clipPath>
<path style="stroke: none; stroke-width: 1; stroke-dasharray: none; stroke-linecap: butt; stroke-dashoffset: 0; stroke-linejoin: miter; stroke-miterlimit: 4; fill: rgb(166,2,145); fill-rule: nonzero; opacity: 1;"  transform=" translate(6.75, -674.86)" d="M 30.34 676.89 c -0.12 -3.57 -0.58 -7.15 -1.35 -10.64 c -0.37 -1.65 -0.79 -3.29 -1.41 -4.87 c -0.4 -1.01 -0.84 -2.33 -1.64 -3.12 c -0.74 -0.74 -1.67 -1.1 -2.65 -1.39 c -0.36 -0.1 -0.73 -0.11 -1.09 -0.03 c -0.07 -0.79 -0.66 -1.57 -1.41 -1.82 c -0.89 -0.3 -1.53 -0.58 -2.48 -0.55 c -0.82 0.03 -1.64 0.1 -2.47 0.14 c -1.81 0.09 -3.56 0.29 -5.35 0.54 c -3.23 0.46 -6.45 1.03 -9.67 1.56 c -6.52 1.06 -13.04 2.13 -19.55 3.28 c -3.21 0.57 -6.42 1.13 -9.63 1.7 c -2.29 0.41 -4.57 0.89 -6.73 1.77 c -2.74 1.12 -5.16 2.7 -6.86 5.18 c -1.93 2.81 -2.22 6.28 -1.67 9.55 c 0.92 5.48 4.7 10.49 9.49 13.21 c 5.41 3.07 12.15 3.26 18.21 3.61 c 6.32 0.36 12.67 0.31 18.99 -0.16 c 3.43 -0.25 6.85 -0.65 10.25 -1.13 c 2.45 -0.34 4.91 -0.71 7.24 -1.54 c 3.04 -1.09 5.7 -2.72 7.59 -5.39 c 2.04 -2.85 2.3 -6.51 2.19 -9.9 Z m -8.85 -7.79 c 0.37 1.79 0.62 3.48 0.77 5.26 c 0.11 1.28 0.17 2.57 0.17 3.86 c 0 0.64 -0.01 1.28 -0.07 1.92 c 0.02 -0.18 0.14 -0.63 -0.03 0.2 c -0.08 0.41 -0.19 0.82 -0.31 1.22 c -0.01 0.04 -0.1 0.23 -0.14 0.32 c -0.09 0.16 -0.18 0.32 -0.27 0.48 c -0.15 -0.04 -0.31 -0.06 -0.5 -0.04 c -0.72 0.06 -1.39 0.01 -2.06 -0.06 c 0.09 -0.24 0.19 -0.48 0.26 -0.74 c 1.03 -4.04 1.63 -8.25 2.18 -12.42 Z m -9.42 -7.28 c 1.65 -0.36 3.21 -0.8 4.82 -1.3 c 0.79 -0.25 1.6 -0.47 2.39 -0.73 c 0.24 -0.08 0.44 -0.18 0.64 -0.28 c -0.3 1.02 -0.28 2.04 0.01 3.28 c 0 0 0 0 0 0.01 c -0.64 -0.39 -1.36 -0.62 -2.04 -0.59 c -3.81 0.16 -7.62 0.41 -11.43 0.76 c 1.87 -0.37 3.75 -0.74 5.61 -1.15 Z" stroke-linecap="round" />
</g>
<g transform="matrix(1 0 0 1 -174.73 457.79)" clip-path="url(#CLIPPATH_83)"  >
<clipPath id="CLIPPATH_83" >
	<rect transform="matrix(1 0 0 1 461.23 -230.11)" clip-path="url(#undefined)" x="-501.745" y="-250.87" rx="0" ry="0" width="1003.49" height="501.74" />
</clipPath>
<path style="stroke: none; stroke-width: 1; stroke-dasharray: none; stroke-linecap: butt; stroke-dashoffset: 0; stroke-linejoin: miter; stroke-miterlimit: 4; fill: rgb(0,179,210); fill-rule: nonzero; opacity: 1;"  transform=" translate(-10.77, -662.79)" d="M 70.09 612.48 c -0.04 -2.75 -2.5 -4.32 -5.05 -3.84 c -19.02 3.58 -38.05 7.16 -57.07 10.75 c -9.51 1.79 -19.02 3.58 -28.53 5.37 c -4.76 0.9 -9.51 1.79 -14.27 2.69 c -1.96 0.37 -3.97 0.73 -5.7 1.79 c -2.17 1.33 -3.55 3.52 -4.08 5.98 c -0.55 2.54 -0.81 5.17 -1.17 7.74 c -0.39 2.8 -0.77 5.6 -1.13 8.4 c -0.7 5.39 -1.33 10.79 -1.9 16.19 c -0.24 2.32 2.03 3.73 3.97 3.97 c 17.37 2.14 35.13 0.98 52.1 -3.28 c 3.29 -0.82 6.52 -1.81 9.65 -2.94 c -0.14 0.54 -0.31 1.07 -0.41 1.57 c -0.48 2.33 -0.9 4.68 -1.26 7.03 c -0.71 4.65 -1.21 9.33 -1.46 14.03 c -0.25 4.67 -0.26 9.36 -0.04 14.04 c 0.09 1.93 0.3 3.87 0.54 5.8 c -0.46 1.7 -0.83 3.36 -0.94 5.17 c -0.1 1.5 1.02 3.04 2.45 3.72 c 0.31 0.32 0.8 0.43 1.26 0.35 c 0.46 0.04 0.92 -0.03 1.36 -0.21 c 8.38 -3.51 16.72 -7.09 25.03 -10.75 c 4.07 -1.79 8.14 -3.61 12.2 -5.44 c 3.53 -1.59 7.35 -3.06 10.09 -5.91 c 3.07 -3.19 4.06 -7.43 4.32 -11.72 c 0.26 -4.28 0.17 -8.61 0.21 -12.89 c 0.09 -9.02 0.12 -18.04 0.1 -27.05 c -0.03 -10.18 -0.12 -20.37 -0.27 -30.56 Z" stroke-linecap="round" />
</g>
<g transform="matrix(1 0 0 1 -163.71 434.37)" clip-path="url(#CLIPPATH_84)"  >
<clipPath id="CLIPPATH_84" >
	<rect transform="matrix(1 0 0 1 450.2 -206.68)" clip-path="url(#undefined)" x="-501.745" y="-250.87" rx="0" ry="0" width="1003.49" height="501.74" />
</clipPath>
<path style="stroke: none; stroke-width: 1; stroke-dasharray: none; stroke-linecap: butt; stroke-dashoffset: 0; stroke-linejoin: miter; stroke-miterlimit: 4; fill: rgb(0,217,142); fill-rule: nonzero; opacity: 1;"  transform=" translate(-21.79, -639.36)" d="M 96.37 571.22 c -2.75 -1.16 -5.99 -0.09 -8.82 0.36 c -11.05 1.8 -22.11 3.52 -33.18 5.15 c -22 3.25 -43.63 6.12 -65.76 8.72 c -5.52 0.65 -11.04 1.28 -16.56 1.88 c -2.8 0.31 -5.6 0.61 -8.41 0.91 c -2.63 0.28 -5.44 0.36 -7.67 1.95 c -2.59 1.84 -3.28 4.84 -4.12 7.72 c -0.78 2.67 -1.53 5.34 -2.26 8.02 c -1.44 5.28 -2.78 10.59 -4.02 15.91 c -0.61 2.62 -1.2 5.26 -1.76 7.89 c -0.43 2.02 0.58 4.42 2.79 4.91 c 7.51 1.66 15.03 3.33 22.54 4.98 c 7.54 1.66 15.11 3.21 22.81 3.99 c 14.07 1.43 28.45 0.2 42.12 -3.39 c 3.73 -0.98 7.42 -2.15 11.03 -3.5 c 1.16 -0.43 2.32 -0.88 3.47 -1.34 c -0.59 2.43 -1.11 4.88 -1.61 7.34 c -1.09 5.34 -1.74 10.78 -1.93 16.22 c -0.37 10.74 1.08 21.56 4.36 31.8 c 1.86 5.81 4.31 11.32 7.52 16.51 c 1.1 1.77 3.54 0.23 2.73 -1.6 c -0.16 -0.36 -0.3 -0.73 -0.46 -1.09 c 5.21 -1.76 10.33 -3.77 15.35 -5.99 c 2.37 -1.05 4.71 -2.15 7.03 -3.3 c 2.21 -1.1 4.51 -2.18 6.56 -3.56 c 2.43 -1.64 4.25 -3.63 5.35 -6.37 c 1 -2.5 1.1 -5.35 1.18 -8.01 c 0.16 -5.45 -0.37 -10.89 -0.86 -16.31 c -1 -11.04 -1.14 -22.07 -0.41 -33.13 c 0.73 -10.96 2.12 -21.56 3.75 -32.28 c 0.83 -5.43 1.76 -10.84 2.58 -16.27 c 0.49 -3.17 0.02 -6.7 -3.34 -8.12 Z" stroke-linecap="round" />
</g>
<g transform="matrix(1 0 0 1 -126.99 402.32)" clip-path="url(#CLIPPATH_85)"  >
<clipPath id="CLIPPATH_85" >
	<rect transform="matrix(1 0 0 1 413.48 -174.64)" clip-path="url(#undefined)" x="-501.745" y="-250.87" rx="0" ry="0" width="1003.49" height="501.74" />
</clipPath>
<path style="stroke: none; stroke-width: 1; stroke-dasharray: none; stroke-linecap: butt; stroke-dashoffset: 0; stroke-linejoin: miter; stroke-miterlimit: 4; fill: rgb(255,80,4); fill-rule: nonzero; opacity: 1;"  transform=" translate(-58.52, -607.32)" d="M 167 511.32 c -2.19 -2.55 -5.45 -3.98 -8.71 -4.52 c -3.58 -0.59 -7.18 -0.47 -10.78 -0.32 c -3.63 0.15 -7.26 0.41 -10.88 0.77 c -7.57 0.75 -15.1 1.9 -22.57 3.35 c -29.38 5.68 -57.67 15.76 -86.86 22.26 c -7.24 1.62 -14.53 2.98 -21.88 4.05 c -6.99 1.02 -14.18 2.14 -20.32 5.87 c -6.46 3.92 -11.03 10.32 -15.7 16.1 c -5.11 6.31 -10.11 12.71 -15.03 19.17 c -2.36 3.1 -4.68 6.22 -6.99 9.35 c -1.25 1.7 -0.28 4.39 1.41 5.36 c 9.31 5.37 19.47 9.63 29.75 12.72 c 10.35 3.11 21.09 5 31.88 5.64 c 20.75 1.24 41.75 -2.42 60.93 -10.44 c 2.37 -0.99 4.71 -2.05 7.02 -3.17 c 3.71 -1.8 7.65 1.92 6.13 5.75 c -0.02 0.04 -0.03 0.08 -0.05 0.12 c -3.36 8.49 -5.89 17.34 -7.32 26.45 c -1.45 9.24 -1.88 18.65 -1.23 27.98 c 0.68 9.7 2.45 19.79 7.37 28.53 c 2.48 4.41 5.73 8.43 9.32 11.99 c 1.72 1.7 3.53 3.32 5.41 4.85 c 1.23 1 2.6 1.89 3.99 2.73 c 0.82 1.58 2.76 2.9 4.57 2.15 c 6.76 -2.79 13.2 -6.14 17.38 -12.39 c 4.03 -6.02 4.72 -13.51 5.45 -20.52 c 0.78 -7.5 1.78 -14.55 3.18 -22.1 c 1.4 -7.54 3.06 -15.03 4.92 -22.47 c 7.47 -29.94 17.91 -58.98 27.42 -88.3 c 1.21 -3.74 2.42 -7.48 3.6 -11.23 c 0.98 -3.11 1.79 -6.33 1.9 -9.61 c 0.12 -3.68 -0.88 -7.3 -3.31 -10.12 Z" stroke-linecap="round" />
</g>
<g transform="matrix(1 0 0 1 -184.71 63.29)" clip-path="url(#CLIPPATH_86)"  >
<clipPath id="CLIPPATH_86" >
	<rect transform="matrix(1 0 0 1 471.2 164.39)" clip-path="url(#undefined)" x="-501.745" y="-250.87" rx="0" ry="0" width="1003.49" height="501.74" />
</clipPath>
<path style="stroke: none; stroke-width: 1; stroke-dasharray: none; stroke-linecap: butt; stroke-dashoffset: 0; stroke-linejoin: miter; stroke-miterlimit: 4; fill: rgb(255,168,0); fill-rule: nonzero; opacity: 1;"  transform=" translate(-0.79, -268.29)" d="M 58.88 170.04 c -8.58 -1.16 -17.16 -2.32 -25.73 -3.48 c -2.14 -0.29 -4.29 -0.58 -6.43 -0.87 c -2.05 -0.28 -4.12 -0.67 -6.19 -0.75 c -2.06 -0.08 -4.32 0.32 -6.03 1.54 c -1.89 1.33 -2.99 3.13 -3.87 5.22 C 4 187.38 -1.79 203.44 -7.73 219.39 c -5.97 16.01 -11.74 32.09 -17.5 48.18 c -5.73 16.03 -11.64 31.99 -17.33 48.03 c -2.86 8.06 -5.63 16.14 -8.26 24.27 c -1.5 4.65 -3.06 9.29 -4.55 13.94 c -0.92 0.53 -1.66 1.4 -1.89 2.38 c -0.24 1.04 -0.1 1.95 0.3 2.73 c -0.51 1.71 -1.02 3.43 -1.49 5.16 c -0.56 2.06 -1.16 4.11 -1.76 6.16 c -0.43 1.47 1.7 1.97 2.24 0.62 c 1.29 -3.22 2.63 -6.42 3.94 -9.64 c 3.33 1.36 6.66 2.72 10.03 3.98 c 2.04 0.77 4.26 1.03 6.27 -0.01 c 1.75 -0.9 2.79 -2.48 3.68 -4.17 c 3.6 -6.78 7.18 -13.58 10.77 -20.36 c 7.1 -13.43 14.2 -26.86 21.3 -40.28 c 14.17 -26.81 28.36 -53.61 42.52 -80.42 c 7.74 -14.66 15.33 -29.44 21.14 -44.99 c 0.68 -1.84 -0.78 -4.65 -2.8 -4.93 Z" stroke-linecap="round" />
</g>
<g transform="matrix(1 0 0 1 748.37 419.73)" clip-path="url(#CLIPPATH_87)"  >
<clipPath id="CLIPPATH_87" >
	<rect transform="matrix(1 0 0 1 -461.88 -192.05)" clip-path="url(#undefined)" x="-501.745" y="-250.87" rx="0" ry="0" width="1003.49" height="501.74" />
</clipPath>
<path style="stroke: none; stroke-width: 1; stroke-dasharray: none; stroke-linecap: butt; stroke-dashoffset: 0; stroke-linejoin: miter; stroke-miterlimit: 4; fill: rgb(0,179,210); fill-rule: nonzero; opacity: 1;"  transform=" translate(-933.87, -624.73)" d="M 977.08 542.46 c -1.95 -0.82 -3.8 0.01 -4.99 1.64 c -16.01 21.82 -30.52 44.71 -44.23 68.04 c -6.86 11.68 -13.52 23.48 -20.09 35.32 c -3.28 5.92 -6.55 11.86 -9.8 17.81 c -1.66 3.04 -3.32 6.08 -4.98 9.12 c -0.75 1.38 -1.51 2.77 -2.26 4.15 c -0.86 1.59 -1.88 3.2 -2.32 4.97 c -1.11 4.48 2.02 7.55 4.98 10.35 c 2.52 2.39 5.26 4.75 8.4 6.29 c 3.09 1.51 6.51 2.39 9.96 1.99 c 0.17 -0.02 0.34 -0.04 0.51 -0.07 c -0.76 1.16 -1.52 2.32 -2.29 3.48 c -0.74 1.12 0.93 2.38 1.85 1.43 c 2.04 -2.13 3.93 -4.4 5.7 -6.75 c 1.23 -0.8 2.26 -1.88 2.92 -3.29 c 0.36 -0.52 0.57 -1.12 0.62 -1.72 c 3.11 -4.71 5.88 -9.65 8.5 -14.62 c 5.03 -9.51 9.29 -19.42 13.26 -29.41 c 4.14 -10.44 8.17 -20.92 12.07 -31.46 c 4.17 -11.27 8.41 -22.55 12.22 -33.95 c 4.27 -12.8 8.34 -25.67 12.29 -38.57 c 0.58 -1.94 -0.54 -4 -2.32 -4.75 Z" stroke-linecap="round" />
</g>
<g transform="matrix(1 0 0 1 361.97 -1.73)" clip-path="url(#CLIPPATH_88)"  >
<clipPath id="CLIPPATH_88" >
	<rect transform="matrix(1 0 0 1 -75.48 229.41)" clip-path="url(#undefined)" x="-501.745" y="-250.87" rx="0" ry="0" width="1003.49" height="501.74" />
</clipPath>
<path style="stroke: none; stroke-width: 1; stroke-dasharray: none; stroke-linecap: butt; stroke-dashoffset: 0; stroke-linejoin: miter; stroke-miterlimit: 4; fill: rgb(0,179,210); fill-rule: nonzero; opacity: 1;"  transform=" translate(-547.47, -203.27)" d="M 547.47 203.35 c 0.1 0 0.1 -0.16 0 -0.16 s -0.1 0.16 0 0.16 v 0 Z" stroke-linecap="round" />
</g>
<g transform="matrix(1 0 0 1 673.69 -29.86)" clip-path="url(#CLIPPATH_89)"  >
<clipPath id="CLIPPATH_89" >
	<rect transform="matrix(1 0 0 1 -387.2 257.55)" clip-path="url(#undefined)" x="-501.745" y="-250.87" rx="0" ry="0" width="1003.49" height="501.74" />
</clipPath>
<path style="stroke: none; stroke-width: 1; stroke-dasharray: none; stroke-linecap: butt; stroke-dashoffset: 0; stroke-linejoin: miter; stroke-miterlimit: 4; fill: rgb(255,80,4); fill-rule: nonzero; opacity: 1;"  transform=" translate(-859.19, -175.13)" d="M 883.65 172.04 c -1.75 -1.88 -3.83 -3.49 -5.99 -4.87 c -4.44 -2.84 -9.43 -4.7 -14.3 -6.66 c -6.06 -2.44 -12.15 -4.82 -18.46 -6.53 c -1.66 -0.45 -3.44 -1.05 -5.17 -1.05 c -0.81 0 -1.58 0.21 -2.27 0.57 c -0.45 -1.9 -1 -3.77 -1.54 -5.67 c -0.37 -1.32 -2.46 -1.09 -2.43 0.33 c 0.07 3.07 0.04 6.13 0.11 9.2 c 0.07 2.92 0.02 5.84 0.03 8.76 c 0.03 6.03 -0.2 12.05 -0.77 18.05 c -0.28 2.91 -0.36 5.85 -0.61 8.77 c -0.22 2.57 -0.55 5.42 1 7.69 c 0.94 1.38 2.33 2.4 4.01 2.62 c 1.97 0.26 3.58 -0.39 5.33 -1.24 c 2.77 -1.35 5.52 -2.71 8.28 -4.07 c 5.52 -2.71 11.04 -5.42 16.57 -8.13 l 8.28 -4.07 c 2.56 -1.26 5.36 -2.35 7.79 -3.86 c 1.68 -1.05 2.86 -2.81 2.8 -4.84 c -0.07 -2.02 -1.34 -3.58 -2.66 -5 Z" stroke-linecap="round" />
</g>
<g transform="matrix(1.62 0 0 1.97 229.46 658.06)" style=""  >
		<text xml:space="preserve" font-family="'efp8DMXFagP1:::Montserrat'" font-size="100" font-style="normal" font-weight="700" style="stroke: none; stroke-width: 0; stroke-dasharray: none; stroke-linecap: butt; stroke-dashoffset: 0; stroke-linejoin: miter; stroke-miterlimit: 4; fill: rgb(255,255,255); fill-rule: nonzero; opacity: 1; white-space: pre;" ><tspan x="-252.88" y="31.41" >Manpasand</tspan></text>
</g>
<g transform="matrix(3.65 0 0 3.65 331.85 245.4)"  >
<path style="stroke: none; stroke-width: 1; stroke-dasharray: none; stroke-linecap: butt; stroke-dashoffset: 0; stroke-linejoin: miter; stroke-miterlimit: 4; fill: rgb(255,255,255); fill-rule: nonzero; opacity: 1;"  transform=" translate(-507.39, -407.43)" d="M 471.27 468.49 c -4.64 2.38 -11.77 2.07 -15.9 0.91 c -3.25 -0.91 -6.27 -3.43 -6.24 -7.06 c 0.02 -2.45 1.66 -5.65 4.3 -6.13 c 3.76 -0.68 13.91 -1.14 16.19 1.37 c -1.58 -1.74 -2.5 -6.17 -3.45 -8.49 c -1.37 -3.36 -2.74 -6.72 -4.05 -10.1 c -2.63 -6.79 -5.07 -13.68 -6.85 -20.76 c -1.12 -4.44 -7.38 -36.5 2.04 -35.46 c 10.7 1.19 19.65 9.55 26.2 17.48 c 3.29 3.98 6.26 8.26 8.71 12.82 c 2.61 4.86 6.61 12.2 6.62 17.86 c -0.02 -13.04 0.08 -26.08 -0.05 -39.12 c -0.12 -12 1.01 -23.45 5.48 -34.71 c 1.96 -4.94 4.88 -10.11 9.91 -11.85 c 7.59 -2.62 17.75 2.86 21.38 9.6 c 2.33 4.32 2.66 9.4 2.84 14.3 c 0.74 20.41 -1.38 40.6 -2.81 60.93 c -0.01 0.2 -0.03 0.39 -0.04 0.59 l 30.1 -33.53 l -31.02 50.17 c 0 0 -3.65 2.96 -4.56 -5.7 c -2.41 -22.91 4.06 -46.67 -1.23 -69.22 c -0.7 -2.99 -3.02 -4.1 -4.86 -1.19 c -14.03 22.12 -16.17 48.83 -18.26 74.29 c -0.19 2.26 -0.37 4.52 -0.56 6.78 c -0.06 0.7 -0.13 1.43 -0.46 2.05 s -1.01 1.12 -1.71 1.01 c -0.55 -0.08 -0.99 -0.5 -1.35 -0.93 c -2.16 -2.54 -3.38 -6.27 -4.96 -9.23 c -1.8 -3.39 -3.68 -6.75 -5.64 -10.05 c -2.69 -4.51 -4.98 -9.29 -8.77 -13.03 c -2.89 -2.85 -6.57 -5.02 -10.6 -5.52 c -1.92 -0.24 -4.06 -0.01 -5.44 1.34 c -1.73 1.68 -1.68 4.45 -1.29 6.83 c 1.61 9.83 6.89 18.48 9.37 28.05 c 0.92 3.56 2.48 8.97 0.5 12.47 c -0.79 1.41 -2.04 2.46 -3.54 3.23 Z" stroke-linecap="round" />
</g>
</svg>