<?xml version="1.0" encoding="utf-8"?>
<!-- Generator: Adobe Illustrator 27.7.0, SVG Export Plug-In . SVG Version: 6.00 Build 0)  -->
<svg version="1.1" id="Layer_1" xmlns="http://www.w3.org/2000/svg" xmlns:xlink="http://www.w3.org/1999/xlink" x="0px" y="0px"
	 viewBox="0 0 1000 1000" style="enable-background:new 0 0 1000 1000;" xml:space="preserve">
<style type="text/css">
	.st0{fill:#FFB505;}
	.st1{clip-path:url(#SVGID_00000024700188316453874400000002074631417631790471_);}
	.st2{clip-path:url(#SVGID_00000075866259844244284910000015260132047059292556_);fill:#00D98E;}
	.st3{clip-path:url(#SVGID_00000075866259844244284910000015260132047059292556_);fill:#652F8F;}
	.st4{clip-path:url(#SVGID_00000075866259844244284910000015260132047059292556_);fill:#001B2D;}
	.st5{clip-path:url(#SVGID_00000075866259844244284910000015260132047059292556_);fill:#FC1185;}
	.st6{clip-path:url(#SVGID_00000075866259844244284910000015260132047059292556_);}
	.st7{fill:#FC1185;}
	.st8{clip-path:url(#SVGID_00000075866259844244284910000015260132047059292556_);fill:#FF5004;}
	.st9{clip-path:url(#SVGID_00000075866259844244284910000015260132047059292556_);fill:#A60291;}
	.st10{clip-path:url(#SVGID_00000075866259844244284910000015260132047059292556_);fill:#00B3D2;}
	.st11{clip-path:url(#SVGID_00000075866259844244284910000015260132047059292556_);fill:#FFA800;}
	.st12{clip-path:url(#SVGID_00000075866259844244284910000015260132047059292556_);fill:#FFF000;}
	.st13{clip-path:url(#SVGID_00000075866259844244284910000015260132047059292556_);fill:#EB1C24;}
	.st14{fill:#00B3D2;}
	.st15{clip-path:url(#SVGID_00000075866259844244284910000015260132047059292556_);fill:#6ABE45;}
	.st16{fill:#FFFFFF;}
	.st17{fill:#1B0F38;}
	.st18{fill:#EB1C24;}
</style>
<g>
	<path id="Shape" class="st0" d="M441.79,538.43l53.53-45.93h76.18v-8.05h21.55v8.05h7.34c2.96,0,5.36-2.4,5.36-5.36V334.26
		c0-2.96-2.4-5.36-5.36-5.36h-7.34v6.93h-21.55v-6.93H429.19v6.93h-21.55v-6.93h-7.94c-2.96,0-5.36,2.4-5.36,5.36v152.89
		c0,2.96,2.4,5.36,5.36,5.36h7.94v-8.05h21.55v8.05h12.6 M429.19,469.25h-21.55v-18.14h21.55V469.25z M429.19,435.89h-21.55v-18.14
		h21.55V435.89z M429.19,402.54h-21.55V384.4h21.55V402.54z M429.19,369.18h-21.55v-18.14h21.55V369.18z M593.06,469.25h-21.55
		v-18.14h21.55V469.25z M593.06,435.89h-21.55v-18.14h21.55V435.89z M593.06,402.54h-21.55V384.4h21.55V402.54z M593.06,369.18
		h-21.55v-18.14h21.55V369.18z"/>
	<g id="colors">
		<defs>
			<path id="SVGID_1_" d="M441.79,538.43l53.53-45.93h76.18v-8.05h21.55v8.05h7.34c2.96,0,5.36-2.4,5.36-5.36V334.26
				c0-2.96-2.4-5.36-5.36-5.36h-7.34v6.93h-21.55v-6.93H429.19v6.93h-21.55v-6.93h-7.94c-2.96,0-5.36,2.4-5.36,5.36v152.89
				c0,2.96,2.4,5.36,5.36,5.36h7.94v-8.05h21.55v8.05h12.6 M429.19,469.25h-21.55v-18.14h21.55V469.25z M429.19,435.89h-21.55
				v-18.14h21.55V435.89z M429.19,402.54h-21.55V384.4h21.55V402.54z M429.19,369.18h-21.55v-18.14h21.55V369.18z M593.06,469.25
				h-21.55v-18.14h21.55V469.25z M593.06,435.89h-21.55v-18.14h21.55V435.89z M593.06,402.54h-21.55V384.4h21.55V402.54z
				 M593.06,369.18h-21.55v-18.14h21.55V369.18z"/>
		</defs>
		<clipPath id="SVGID_00000159445233116290406470000018305710967444049549_">
			<use xlink:href="#SVGID_1_"  style="overflow:visible;"/>
		</clipPath>
		<g style="clip-path:url(#SVGID_00000159445233116290406470000018305710967444049549_);">
			<defs>
				<rect id="SVGID_00000031903024530322913020000002249232316277078203_" x="-29.75" y="181.81" width="1003.49" height="501.74"/>
			</defs>
			<clipPath id="SVGID_00000178177585550488038520000009029934469763087540_">
				<use xlink:href="#SVGID_00000031903024530322913020000002249232316277078203_"  style="overflow:visible;"/>
			</clipPath>
			<path style="clip-path:url(#SVGID_00000178177585550488038520000009029934469763087540_);fill:#00D98E;" d="M301.98,163.09
				c-1.1-0.85-2.49-1.41-3.74-2.02c-4.56-2.25-9.26-4.24-14.05-5.94c-18.85-6.69-39.72-8.84-59.31-4.23
				c-9.93,2.34-19.35,6.57-27.79,12.28c-8.92,6.03-16.85,13.37-24.51,20.89c-7.3,7.18-14.37,14.61-21.19,22.25
				c-2.56,2.13-5.09,4.29-7.58,6.5c-8.64,7.68-16.88,15.82-24.58,24.44c-15.64,17.51-29.15,37.02-39.08,58.33
				c-10.02,21.52-16.54,44.65-18.07,68.39c-0.79,12.27,0.06,24.95,5.35,36.23c4.45,9.48,12.39,17.57,22.38,21.05
				c12.12,4.22,25.22,0.12,36.8-3.89c11.49-3.98,22.7-8.81,33.49-14.42c10.55-5.49,20.71-11.74,30.35-18.72
				c4.66-3.37,9.73-7.73,9.79-14c0.06-5.96-4.58-10.08-9.77-12.03c-5.71-2.15-12.19-1.28-18.05-0.3
				c-5.68,0.95-10.66,2.25-16.38,1.87c-0.54-0.04-1.08-0.09-1.61-0.15c-0.06-0.01-0.13-0.02-0.16-0.03
				c-0.35-0.07-0.7-0.12-1.04-0.19c-1.14-0.23-2.27-0.55-3.36-0.95c0.01,0-0.38-0.16-0.55-0.23c-0.18-0.08-0.39-0.18-0.38-0.18
				c-0.5-0.25-1-0.52-1.48-0.82c-0.19-0.12-0.38-0.24-0.56-0.37c0,0-0.33-0.26-0.47-0.36c-0.14-0.12-0.3-0.26-0.3-0.26
				c-0.25-0.23-0.49-0.46-0.72-0.7c-0.19-0.2-0.37-0.43-0.56-0.63c-0.02-0.02-0.03-0.03-0.05-0.04c-0.02-0.03-0.03-0.05-0.06-0.1
				c-0.36-0.53-0.7-1.07-0.99-1.64c-0.4-0.78-0.7-1.87-1-3.25c-0.02-0.1-0.04-0.18-0.05-0.24c0-0.03-0.01-0.06-0.01-0.11
				c-0.04-0.34-0.07-0.68-0.09-1.02c-0.04-0.69-0.06-1.38-0.04-2.07c0.01-0.7,0.06-1.39,0.12-2.08c0.03-0.28,0.06-0.56,0.09-0.83
				c0.02-0.18,0.03-0.27,0.03-0.32c0.01-0.04,0.02-0.11,0.05-0.29c3.91-22.3,17.54-41.25,31.9-58.09
				c15.41-18.06,32.06-35.09,49.64-51.04c8.79-7.98,17.86-15.63,27.08-23.1c4.57-3.71,9.06-7.23,13.57-10.65
				c1.76-1.34,3.48-2.68,5.19-4.01c0.59,0.25,1.32,0.28,2.09-0.07c1.39-0.62,2.72-1.18,3.99-2.03c1.24-0.82,2.49-1.64,3.73-2.48
				c2.47-1.68,4.91-3.43,7.28-5.24c2.32-1.77,4.64-3.55,6.95-5.32c2.05-1.57,4.16-3.13,5.84-5.11c1.91-2.25,3.29-4.74,3.55-7.73
				C303.79,166.24,303.47,164.25,301.98,163.09z"/>
			<path style="clip-path:url(#SVGID_00000178177585550488038520000009029934469763087540_);fill:#652F8F;" d="M586.47,277.29
				c-3.29-2.91-7.25-4.82-10.44-7.89c-5.98-5.75-9.82-13.25-11.19-21.41c-1.04-6.23-0.94-12.67-2.26-18.83
				c0.34-0.45,0.7-0.89,1.09-1.32c2.72-3.08,5.75-5.83,8.21-9.14c1.55-2.08,2.35-4.61,1.63-7.18c-0.63-2.28-2.24-3.97-4.09-5.34
				c-3.4-2.51-8.07-3.41-12.12-4.3c-4.64-1.02-9.34-1.76-14.06-2.29c-2.14-0.24-4.21-0.36-6.34,0.05c-1.62,0.31-3.45,1.15-4.69,2.42
				c-3.95-1.88-8.44-2.7-12.96-2.84c-7.95-0.26-16.05,0.58-23.94,1.49c-8.26,0.95-16.47,2.24-24.62,3.88
				c-15.8,3.18-31.33,7.6-46.59,12.8c-15.61,5.32-30.92,11.45-46.07,17.95c-7.44,3.19-14.84,6.47-22.21,9.81
				c-7.36,3.33-14.16,6.45-21.66,9.19c-3.75,1.37-7.55,2.6-11.42,3.6c-1.93,0.5-3.87,0.94-5.82,1.31c-2.12,0.4-3.64,0.64-5.53,0.84
				c-1.53,0.16-3.06,0.28-4.61,0.16c-0.23-0.02-0.55-0.06-0.57-0.06c-0.21-0.04-0.42-0.07-0.62-0.12c-0.46-0.1-0.92-0.23-1.39-0.4
				c-0.26-0.14-0.51-0.29-0.77-0.44c-0.01-0.01-0.02-0.01-0.03-0.02c-0.02-0.02-0.03-0.04-0.06-0.08c-0.05-0.05-0.1-0.12-0.15-0.18
				c-0.05-0.1-0.1-0.19-0.17-0.29c-0.14-0.59-0.11-0.12-0.1-0.73c0.01-0.46,0.04-0.91,0.08-1.37c0,0.02,0.03-0.23,0.04-0.37
				c0.02-0.13,0.05-0.35,0.05-0.34c0.09-0.58,0.19-1.16,0.31-1.73c1.51-7.58,4.73-13.79,8.62-20.5c3.9-6.73,8.18-13.26,11.4-20.36
				c3.27-7.2,5.79-15.18,5.2-23.19c-0.5-6.76-3.01-13.14-7.29-18.39c-3.05-3.74-7.07-6.44-11.6-7.77c-0.26-1.01-1.33-1.76-2.49-0.86
				c-0.19,0.06-0.43,0.13-0.62,0.18c-0.51-0.08-1.02-0.14-1.54-0.18c-2.09-0.17-4.09,1.96-4,4c-20.65,13.54-40.55,28.17-59.86,43.56
				c-21.3,16.99-42.08,34.78-61.74,53.65c-9.5,9.11-18.99,18.31-27.77,28.13c-8.24,9.22-16.01,19.2-21.4,30.39
				c-4.62,9.61-7.88,21.64-7.23,32.34c0.8,13.05,8.79,23.68,21.99,25.39c9.76,1.27,19.38-1.71,28.51-4.83
				c1.81-0.62,14.84-6.74,12.8,0.21c-0.49,1.68-2.12,2.75-3.67,3.57c-24.5,12.88-66.01,28.94-85.14,18.7
				C80.1,388.8,80.13,369,84.37,352.01c11.62-46.58,41.67-88.79,77.01-120.65c17.76-16.01,35.77-31.6,54.44-46.62
				c5.1-4.1,10.21-8.17,15.33-12.25c2.75-2.19,5.51-4.38,8.26-6.58c2.97-2.37,0.24-6.59-2.83-6.83c-15.29-1.2-30.63-1.58-45.95-1.1
				c-13.95,0.43-27.94,1.85-39.83,9.83c-11.11,7.45-20.25,17.98-29.11,27.9c-8.96,10.03-17.43,20.49-25.43,31.3
				c-16.04,21.68-30.05,44.88-41.73,69.19c-12.13,25.23-23.27,53.16-20.25,81.72c2.35,22.13,14.64,44.74,35.07,54.99
				c12.14,6.09,25.54,6.49,38.66,3.71c13.98-2.96,27.5-8.6,40.36-14.71c26.19-12.44,50.8-28.25,75.53-43.3
				c25.57-15.56,51.02-31.32,76.56-46.93c25.41-15.54,50.91-30.94,76.67-45.89c12.82-7.44,25.71-14.76,38.68-21.92
				c9.37-5.18,18.9-11.08,29.09-14.8c0.33-0.02,0.67-0.09,1-0.27c0.19-0.09,0.5-0.24,0.69-0.33c2.37-0.8,4.78-1.48,7.23-1.99
				c5.79-1.21,12.07-1.21,17.59,1.16c1.98,0.85,4.29,0.59,5.47-1.43c0.98-1.68,0.56-4.62-1.43-5.47c-1.93-0.82-3.87-1.43-5.81-1.89
				c0.51-0.06,1.04-0.09,1.64-0.12c1.92-0.07,3.24,0.03,4.91,0.4c0.84,0.19,1.67,0.42,2.48,0.71c0.13,0.04,0.57,0.22,0.72,0.27
				c0.1,0.04,0.24,0.11,0.24,0.11c0.22,0.11,0.43,0.21,0.65,0.32c0.7,0.36,1.37,0.75,2.03,1.18c0.3,0.2,0.6,0.41,0.89,0.61
				c0.05,0.03,0.08,0.06,0.11,0.07c0.19,0.15,0.38,0.31,0.56,0.47c1.2,1.03,2.28,2.18,3.29,3.39c0.04,0.04,0.06,0.07,0.08,0.1
				c0.08,0.1,0.15,0.2,0.23,0.3c0.22,0.3,0.43,0.6,0.63,0.9c0.48,0.71,0.93,1.45,1.35,2.2c0.36,0.65,0.69,1.31,1,1.98
				c0.08,0.17,0.15,0.34,0.23,0.5c-0.07-0.15-0.24-0.61,0.04,0.1c0.16,0.4,0.31,0.8,0.45,1.21c0.6,1.7,1.06,3.46,1.4,5.23
				c0.66,3.5,0.7,7.66,0.37,11.53c-0.31,3.65-1.04,7.44-1.97,11.26c-1.66,6.83-3.93,13.51-6.66,20.01
				c-0.01,0.03-0.03,0.08-0.06,0.15c-0.08,0.19-0.16,0.37-0.24,0.56c-0.16,0.37-0.32,0.74-0.49,1.11c-0.35,0.8-0.71,1.6-1.07,2.4
				c-0.76,1.66-1.54,3.3-2.35,4.94c-1.56,3.16-3.2,6.28-4.9,9.36c-6.9,12.48-14.8,24.37-22.49,36.37
				c-7.69,11.99-15.21,24.15-21.3,37.05c-0.92-0.33-1.96-0.25-2.99,0.53c-12.68,9.62-24.67,20.09-35.79,31.49
				c-5.28,5.41-10.99,10.95-15.36,17.14c-1.88,2.66-3.27,6.04-2.77,9.33c0.57,3.8,3.67,6.32,7.4,6.75c3.55,0.41,7.4-0.57,10.88-1.27
				c3.58-0.72,7.13-1.58,10.69-2.41c6.63-1.53,13.38-3.06,20.22-2.74c6.19,0.29,11.97,2.68,16.1,7.38
				c3.75,4.28,5.45,10.06,6.33,15.57c0.97,6.07,0.83,12.34,0.48,18.45c-0.47,8.17-1.15,16.33-1.85,24.48
				c-1.47,17.14-3.28,34.24-5.44,51.31c-2.14,16.86-4.63,33.68-7.45,50.44c-2.8,16.64-6.45,33.13-9.36,49.74
				c-1.31,7.44-0.74,15.01,5.82,19.8c5.69,4.15,13.53,4.65,20.28,5.37c16.38,1.75,32.98,1.01,49.18-1.97
				c4.07-0.75,8.11-1.66,12.11-2.7c2.58-0.67,3.56-3.62,2.38-5.85c-17.94-34.02-21.32-73.62-16.53-111.3
				c2.59-20.35,7.76-40.3,14.2-59.75c6.5-19.61,14.65-38.48,22.26-57.65c3.74-9.43,6.35-19.51,4.32-29.66
				c-1.64-8.19-6.24-15.42-9.94-22.79c-3.53-7.04-6.05-14.49-3.56-22.31c2.59-8.12,9.07-14.57,14.82-20.57
				c14.14-14.77,27.4-30.34,39.72-46.66c5.47-7.26,12.82-15.32,13.62-24.79C591.52,284.49,589.76,280.21,586.47,277.29z
				 M551.47,235.32c-0.11,0.38-0.21,0.76-0.3,1.14c-0.87,3.53-1.27,7.16-1.91,10.73c-0.66,3.75-1.56,7.45-2.76,11.06
				c-1.15,3.48-2.43,6.73-4.28,9.92c-0.42,0.73-0.63,1.07-1.16,1.55c0.03-0.05-0.32,0.2-0.51,0.32c-0.03,0.01-0.07,0.02-0.12,0.03
				c-0.03,0.01-0.05,0.01-0.08,0.02c-0.05-0.03-0.1-0.05-0.15-0.08c-0.01-0.02-0.01-0.02-0.03-0.04c-0.04-0.05-0.07-0.08-0.09-0.09
				c-0.05-0.08-0.1-0.15-0.15-0.23c-0.08-0.13-0.34-0.69-0.37-0.7c-1.1-2.92-1.07-6.39-0.61-9.23c0.57-3.5,1.61-6.86,3.22-9.98
				C544.82,244.61,548.18,240,551.47,235.32z"/>
			<path style="clip-path:url(#SVGID_00000178177585550488038520000009029934469763087540_);fill:#001B2D;" d="M983.3,662.44
				c-0.42-13.01-2.2-26-5.26-38.65c-0.35-1.44-1.36-2.32-2.54-2.68c0.87-0.73,1.14-2.29,0.19-3.28c-0.9-0.92-2.3-0.81-3.28-0.12
				c-1.04,0.73-1.64,2.07-2.23,3.16c-2.67,4.94-4.67,10.24-6.63,15.49c-3.86,10.34-6.63,21.18-8.31,32.08
				c-0.45,2.89-0.84,5.79-1.16,8.7c-0.27,2.47-0.88,5.3-0.14,7.74c0.47,1.55,1.49,2.85,2.9,3.63c1.63,0.91,3.42,0.73,5.2,0.61
				c2.87-0.19,5.73-0.38,8.6-0.57c2.78-0.18,5.98-0.02,8.47-1.45c2.94-1.68,3.75-4.69,3.96-7.84
				C983.44,673.68,983.49,668.05,983.3,662.44z"/>
			<path style="clip-path:url(#SVGID_00000178177585550488038520000009029934469763087540_);fill:#FC1185;" d="M986.56,588.37
				c-0.3-2.87-0.69-5.73-1.17-8.58c-0.91-5.3-2.21-10.52-3.85-15.64c-1.05-3.26-5.48-3.96-7.3-0.95
				c-13.14,21.66-24.98,44.09-35.42,67.17c-5.27,11.64-10.19,23.43-14.76,35.36c-1.14,2.97-2.25,5.96-3.35,8.95
				c-1.19,3.26-2.26,6.53-1.71,10.04c1,6.39,7.34,8.76,12.78,10.37c5.18,1.53,10.8,2.71,16.22,2.24c2.2-0.19,4.43-0.58,6.5-1.4
				c-0.28,2.76-0.55,5.53-0.84,8.29c-0.14,1.33,2.09,1.63,2.34,0.32c0.66-3.56,1.44-7.09,2.17-10.64c0.72-0.53,1.39-1.15,1.8-1.86
				c0.72-1.23,0.81-2.89,0.8-4.28c-0.01-0.73-0.45-1.38-1.06-1.72c0.66-3.49,1.33-6.99,2.01-10.48c1.9-9.68,3.96-19.33,6.16-28.94
				c2.03-8.84,4.12-17.71,7.29-26.22c1.47-3.96,3.49-7.76,5.56-11.49c2.18-3.93,5.18-7.61,5.9-12.17
				C987.07,593.94,986.85,591.18,986.56,588.37z"/>
			<path style="clip-path:url(#SVGID_00000178177585550488038520000009029934469763087540_);fill:#001B2D;" d="M722.02,666.07
				c-0.16-5.66-0.32-11.32-0.49-16.98c-0.19-6.49-0.37-12.98-0.56-19.47c-0.05-1.69-1.2-3.45-2.93-3.84
				c-1.58-0.36-3.8,0.19-4.5,1.83c-7.07,16.44-14.88,32.52-22.43,48.73c-1.07,2.29-2.01,4.62-3.02,6.94
				c-0.55,1.28-1.04,2.57-1.52,3.88c-0.44,1.19-0.65,2.44-1.02,3.65c-0.54,1.81,2.04,3.52,3.33,1.94c0.52-0.65,1.05-1.28,1.57-1.91
				c0.46,0.51,1.06,0.91,1.78,1.14c0.74,0.24,1.63,0.18,2.37-0.11c2.23,0.22,4.5,0.22,6.73,0.32c2.89,0.13,5.78,0.27,8.67,0.4
				c3.01,0.14,6.1,0.28,8.49-1.9c2.1-1.91,2.72-4.9,3.13-7.58C722.5,677.46,722.19,671.76,722.02,666.07z"/>
			<g style="clip-path:url(#SVGID_00000178177585550488038520000009029934469763087540_);">
				<path class="st7" d="M771.19,511.77c-0.75-3.51-3.64-6.34-7.38-6.13c-4.01,0.22-6.55,3.77-8.94,6.56
					c-9.44,11.01-18.04,22.72-26,34.83c-15.89,24.16-29.29,49.83-42.79,75.37c-7.5,14.19-15,28.38-22.51,42.56
					c-1.88,3.55-3.75,7.09-5.63,10.64l-2.58,4.88c-1.07,2.02-2.43,4.11-2.51,6.46c-0.18,5.09,4.89,6.53,8.86,7.52
					c3.85,0.97,7.79,1.6,11.74,1.97c2.51,0.23,5.02,0.32,7.53,0.29c0.29,0.9,1.69,1.33,2.39,0.3c0.09-0.13,0.17-0.26,0.25-0.38
					c0.22-0.01,0.43-0.01,0.65-0.03c2.08-0.12,4.1-1.75,4-4c-0.03-0.73-0.27-1.45-0.65-2.08c6.97-10.91,13.18-22.26,18.83-33.93
					c3.4-7.02,6.6-14.14,9.62-21.32c0.02-0.05,0.04-0.09,0.06-0.14c0.81-1.92,3.66-1.16,3.4,0.9c-1.39,10.82-2.44,21.68-3.18,32.59
					c-0.26,3.81-0.6,7.62-0.84,11.43c-0.24,3.89-0.34,7.8-0.66,11.68c-0.12,1.39,1.16,3.13,2.56,3.37c2.11,0.37,4.24,0.81,6.38,0.97
					c1.98,0.14,3.97,0.27,5.96,0.37c1.99,0.1,3.97,0.18,5.96,0.24c1.81,0.05,3.65,0.19,5.46-0.01c2.44-0.27,4.56-1.3,5.95-3.39
					c0.92-1.38,1.3-2.98,1.52-4.6c0.58-4.16,1.1-8.32,1.65-12.49c2.1-15.89,4.21-31.78,6.31-47.68
					c4.19-31.62,8.37-63.24,12.56-94.86c0.53-3.97,1.05-7.95,1.58-11.92C771.21,518.42,771.91,515.12,771.19,511.77z"/>
				<path class="st7" d="M740.62,688.76c-0.01,0-0.01,0.01-0.02,0.01c0.01,0,0.02,0,0.03,0c0,0,0.01-0.01,0.01-0.01
					C740.64,688.76,740.63,688.76,740.62,688.76z"/>
			</g>
			<path style="clip-path:url(#SVGID_00000178177585550488038520000009029934469763087540_);fill:#FF5004;" d="M12.75,173.11
				c-10.78-1.52-21.65-1.9-32.49-0.84c-2.93,0.29-5.85,0.66-8.76,1.12c-0.66,0.1-1.27,0.28-1.86,0.5c-0.16-1.82-0.41-3.64-0.51-5.47
				c-0.12-2.23-3.27-2.2-3.45,0c-0.32,3.86-0.95,7.63-1.11,11.51c-0.15,3.84-0.46,7.67-0.67,11.51c-0.41,7.67-0.59,15.35-0.87,23.02
				c-0.55,15.34-0.67,30.7-0.89,46.04c-0.13,8.67-0.25,17.35-0.38,26.02c-0.02,1.68,1.25,3.46,2.93,3.84
				c1.63,0.37,3.72-0.21,4.5-1.83c13.64-28.14,26.07-56.86,37.28-86.05c3.12-8.12,6.14-16.28,9.07-24.47
				C16.2,176.18,14.78,173.4,12.75,173.11z"/>
			<path style="clip-path:url(#SVGID_00000178177585550488038520000009029934469763087540_);fill:#A60291;" d="M30.34,676.89
				c-0.12-3.57-0.58-7.15-1.35-10.64c-0.37-1.65-0.79-3.29-1.41-4.87c-0.4-1.01-0.84-2.33-1.64-3.12c-0.74-0.74-1.67-1.1-2.65-1.39
				c-0.36-0.1-0.73-0.11-1.09-0.03c-0.07-0.79-0.66-1.57-1.41-1.82c-0.89-0.3-1.53-0.58-2.48-0.55c-0.82,0.03-1.64,0.1-2.47,0.14
				c-1.81,0.09-3.56,0.29-5.35,0.54c-3.23,0.46-6.45,1.03-9.67,1.56c-6.52,1.06-13.04,2.13-19.55,3.28
				c-3.21,0.57-6.42,1.13-9.63,1.7c-2.29,0.41-4.57,0.89-6.73,1.77c-2.74,1.12-5.16,2.7-6.86,5.18c-1.93,2.81-2.22,6.28-1.67,9.55
				c0.92,5.48,4.7,10.49,9.49,13.21c5.41,3.07,12.15,3.26,18.21,3.61c6.32,0.36,12.67,0.31,18.99-0.16
				c3.43-0.25,6.85-0.65,10.25-1.13c2.45-0.34,4.91-0.71,7.24-1.54c3.04-1.09,5.7-2.72,7.59-5.39
				C30.19,683.94,30.45,680.28,30.34,676.89z M21.49,669.1c0.37,1.79,0.62,3.48,0.77,5.26c0.11,1.28,0.17,2.57,0.17,3.86
				c0,0.64-0.01,1.28-0.07,1.92c0.02-0.18,0.14-0.63-0.03,0.2c-0.08,0.41-0.19,0.82-0.31,1.22c-0.01,0.04-0.1,0.23-0.14,0.32
				c-0.09,0.16-0.18,0.32-0.27,0.48c-0.15-0.04-0.31-0.06-0.5-0.04c-0.72,0.06-1.39,0.01-2.06-0.06c0.09-0.24,0.19-0.48,0.26-0.74
				C20.34,677.48,20.94,673.27,21.49,669.1z M12.07,661.82c1.65-0.36,3.21-0.8,4.82-1.3c0.79-0.25,1.6-0.47,2.39-0.73
				c0.24-0.08,0.44-0.18,0.64-0.28c-0.3,1.02-0.28,2.04,0.01,3.28c0,0,0,0,0,0.01c-0.64-0.39-1.36-0.62-2.04-0.59
				c-3.81,0.16-7.62,0.41-11.43,0.76C8.33,662.6,10.21,662.23,12.07,661.82z"/>
			<path style="clip-path:url(#SVGID_00000178177585550488038520000009029934469763087540_);fill:#00B3D2;" d="M70.09,612.48
				c-0.04-2.75-2.5-4.32-5.05-3.84c-19.02,3.58-38.05,7.16-57.07,10.75c-9.51,1.79-19.02,3.58-28.53,5.37
				c-4.76,0.9-9.51,1.79-14.27,2.69c-1.96,0.37-3.97,0.73-5.7,1.79c-2.17,1.33-3.55,3.52-4.08,5.98c-0.55,2.54-0.81,5.17-1.17,7.74
				c-0.39,2.8-0.77,5.6-1.13,8.4c-0.7,5.39-1.33,10.79-1.9,16.19c-0.24,2.32,2.03,3.73,3.97,3.97c17.37,2.14,35.13,0.98,52.1-3.28
				c3.29-0.82,6.52-1.81,9.65-2.94c-0.14,0.54-0.31,1.07-0.41,1.57c-0.48,2.33-0.9,4.68-1.26,7.03c-0.71,4.65-1.21,9.33-1.46,14.03
				c-0.25,4.67-0.26,9.36-0.04,14.04c0.09,1.93,0.3,3.87,0.54,5.8c-0.46,1.7-0.83,3.36-0.94,5.17c-0.1,1.5,1.02,3.04,2.45,3.72
				c0.31,0.32,0.8,0.43,1.26,0.35c0.46,0.04,0.92-0.03,1.36-0.21c8.38-3.51,16.72-7.09,25.03-10.75c4.07-1.79,8.14-3.61,12.2-5.44
				c3.53-1.59,7.35-3.06,10.09-5.91c3.07-3.19,4.06-7.43,4.32-11.72c0.26-4.28,0.17-8.61,0.21-12.89c0.09-9.02,0.12-18.04,0.1-27.05
				C70.33,632.86,70.24,622.67,70.09,612.48z"/>
			<path style="clip-path:url(#SVGID_00000178177585550488038520000009029934469763087540_);fill:#00D98E;" d="M96.37,571.22
				c-2.75-1.16-5.99-0.09-8.82,0.36c-11.05,1.8-22.11,3.52-33.18,5.15c-22,3.25-43.63,6.12-65.76,8.72
				c-5.52,0.65-11.04,1.28-16.56,1.88c-2.8,0.31-5.6,0.61-8.41,0.91c-2.63,0.28-5.44,0.36-7.67,1.95c-2.59,1.84-3.28,4.84-4.12,7.72
				c-0.78,2.67-1.53,5.34-2.26,8.02c-1.44,5.28-2.78,10.59-4.02,15.91c-0.61,2.62-1.2,5.26-1.76,7.89
				c-0.43,2.02,0.58,4.42,2.79,4.91c7.51,1.66,15.03,3.33,22.54,4.98c7.54,1.66,15.11,3.21,22.81,3.99
				c14.07,1.43,28.45,0.2,42.12-3.39c3.73-0.98,7.42-2.15,11.03-3.5c1.16-0.43,2.32-0.88,3.47-1.34c-0.59,2.43-1.11,4.88-1.61,7.34
				c-1.09,5.34-1.74,10.78-1.93,16.22c-0.37,10.74,1.08,21.56,4.36,31.8c1.86,5.81,4.31,11.32,7.52,16.51
				c1.1,1.77,3.54,0.23,2.73-1.6c-0.16-0.36-0.3-0.73-0.46-1.09c5.21-1.76,10.33-3.77,15.35-5.99c2.37-1.05,4.71-2.15,7.03-3.3
				c2.21-1.1,4.51-2.18,6.56-3.56c2.43-1.64,4.25-3.63,5.35-6.37c1-2.5,1.1-5.35,1.18-8.01c0.16-5.45-0.37-10.89-0.86-16.31
				c-1-11.04-1.14-22.07-0.41-33.13c0.73-10.96,2.12-21.56,3.75-32.28c0.83-5.43,1.76-10.84,2.58-16.27
				C100.2,576.17,99.73,572.64,96.37,571.22z"/>
			<path style="clip-path:url(#SVGID_00000178177585550488038520000009029934469763087540_);fill:#FF5004;" d="M167,511.32
				c-2.19-2.55-5.45-3.98-8.71-4.52c-3.58-0.59-7.18-0.47-10.78-0.32c-3.63,0.15-7.26,0.41-10.88,0.77
				c-7.57,0.75-15.1,1.9-22.57,3.35c-29.38,5.68-57.67,15.76-86.86,22.26c-7.24,1.62-14.53,2.98-21.88,4.05
				c-6.99,1.02-14.18,2.14-20.32,5.87c-6.46,3.92-11.03,10.32-15.7,16.1c-5.11,6.31-10.11,12.71-15.03,19.17
				c-2.36,3.1-4.68,6.22-6.99,9.35c-1.25,1.7-0.28,4.39,1.41,5.36c9.31,5.37,19.47,9.63,29.75,12.72c10.35,3.11,21.09,5,31.88,5.64
				c20.75,1.24,41.75-2.42,60.93-10.44c2.37-0.99,4.71-2.05,7.02-3.17c3.71-1.8,7.65,1.92,6.13,5.75c-0.02,0.04-0.03,0.08-0.05,0.12
				c-3.36,8.49-5.89,17.34-7.32,26.45c-1.45,9.24-1.88,18.65-1.23,27.98c0.68,9.7,2.45,19.79,7.37,28.53
				c2.48,4.41,5.73,8.43,9.32,11.99c1.72,1.7,3.53,3.32,5.41,4.85c1.23,1,2.6,1.89,3.99,2.73c0.82,1.58,2.76,2.9,4.57,2.15
				c6.76-2.79,13.2-6.14,17.38-12.39c4.03-6.02,4.72-13.51,5.45-20.52c0.78-7.5,1.78-14.55,3.18-22.1
				c1.4-7.54,3.06-15.03,4.92-22.47c7.47-29.94,17.91-58.98,27.42-88.3c1.21-3.74,2.42-7.48,3.6-11.23c0.98-3.11,1.79-6.33,1.9-9.61
				C170.43,517.76,169.43,514.14,167,511.32z"/>
			<path style="clip-path:url(#SVGID_00000178177585550488038520000009029934469763087540_);fill:#FFA800;" d="M58.88,170.04
				c-8.58-1.16-17.16-2.32-25.73-3.48c-2.14-0.29-4.29-0.58-6.43-0.87c-2.05-0.28-4.12-0.67-6.19-0.75
				c-2.06-0.08-4.32,0.32-6.03,1.54c-1.89,1.33-2.99,3.13-3.87,5.22C4,187.38-1.79,203.44-7.73,219.39
				c-5.97,16.01-11.74,32.09-17.5,48.18c-5.73,16.03-11.64,31.99-17.33,48.03c-2.86,8.06-5.63,16.14-8.26,24.27
				c-1.5,4.65-3.06,9.29-4.55,13.94c-0.92,0.53-1.66,1.4-1.89,2.38c-0.24,1.04-0.1,1.95,0.3,2.73c-0.51,1.71-1.02,3.43-1.49,5.16
				c-0.56,2.06-1.16,4.11-1.76,6.16c-0.43,1.47,1.7,1.97,2.24,0.62c1.29-3.22,2.63-6.42,3.94-9.64c3.33,1.36,6.66,2.72,10.03,3.98
				c2.04,0.77,4.26,1.03,6.27-0.01c1.75-0.9,2.79-2.48,3.68-4.17c3.6-6.78,7.18-13.58,10.77-20.36c7.1-13.43,14.2-26.86,21.3-40.28
				c14.17-26.81,28.36-53.61,42.52-80.42c7.74-14.66,15.33-29.44,21.14-44.99C62.36,173.13,60.9,170.32,58.88,170.04z"/>
			<path style="clip-path:url(#SVGID_00000178177585550488038520000009029934469763087540_);fill:#FFA800;" d="M366.42,321.9
				c-7.74-1.28-15.52,1.9-22.62,4.63c-7.55,2.91-14.93,6.27-22.12,9.99c-14.26,7.38-27.78,16.09-41.03,25.14
				c-28.21,19.26-55.65,39.69-82.29,61.06c-25.96,20.82-50.63,43.5-78.08,62.4c-25.6,17.63-55.27,32.38-86.61,35.36
				c-13.71,1.3-27.48-0.25-41.21,0.72c-13.02,0.92-26.37,4.42-35.19,14.71c-4.07,4.75-7.1,10.91-12.52,14.33
				c-2.62,1.66-2.37,5,0,6.85c71.52,55.67,162.85,2.55,206.46-29.49c3.17-2.33,7.08,1.74,4.62,4.81
				c-10.72,13.4-22.75,29.07-28.73,38.96c-10.89,18-19.14,38.09-19.96,59.34c-0.76,19.66,4.89,39.96,18.92,54.23
				c12.57,12.78,29.86,19.75,47.52,21.72c-0.15,1.5,0.4,2.98,1.87,3.84c1.71,1,4.59,0.55,5.47-1.43c0.27-0.61,0.52-1.23,0.77-1.85
				c1.27,0.03,2.53,0.05,3.8,0.03c3.24-0.04,3.21-4.85,0-5.02c-0.66-0.03-1.33-0.09-1.99-0.13c8.38-27.76-4.5-57.28,1.29-85.62
				c3.14-15.4,10.26-29.57,18.43-42.88c8.26-13.45,17.47-26.34,27.15-38.8c19.74-25.41,41.49-49.18,63.44-72.69
				c10.91-11.69,21.89-23.31,32.72-35.07c10.63-11.53,21.27-23.1,30.73-35.63c4.68-6.2,9.04-12.66,12.81-19.45
				c3.51-6.31,6.92-13.07,8.83-20.07C381.94,340.65,380.63,324.24,366.42,321.9z"/>
			<path style="clip-path:url(#SVGID_00000178177585550488038520000009029934469763087540_);fill:#FFA800;" d="M367.97,553.95
				c-19.56,17.25-39.06,34.59-58.77,51.67c-18.96,16.44-38.49,32.87-58.19,47.99c-11.35,8.71-22.92,17.13-34.77,25.16
				c-1.34,0.91-2.27,2.55-1.91,4.19c-0.21,0.05-0.41,0.09-0.62,0.14c-2.07,0.45-1.94,3.53,0,4.05c2.01,0.54,3.97,1.15,6.05,1.36
				c2,0.21,3.99,0.41,5.99,0.57c3.82,0.32,7.65,0.43,11.48,0.54c7.82,0.21,15.64,0.43,23.46,0.64c7.82,0.21,15.64,0.41,23.46,0.59
				c4.15,0.1,7.95-0.42,11.22-3.18c2.62-2.21,4.36-5.37,6.2-8.21l51.1-78.81c8.72-13.44,18.1-27.04,21.97-42.82
				C375.63,553.84,370.93,551.34,367.97,553.95z"/>
			<path style="clip-path:url(#SVGID_00000178177585550488038520000009029934469763087540_);fill:#FC1185;" d="M495.23,229.11
				c-16.05-12.73-37.29-5.74-54.29,0.99c-37.79,14.96-72.1,37.02-105.32,60.16c-35.04,24.41-69.74,49.17-105.78,72.12
				c-18.58,11.83-37.36,23.36-56.39,34.47c-18.31,10.69-37.06,20.9-57.07,28.06c-9.66,3.46-20.44,7.39-30.87,6.07
				c-8.15-1.03-15.22-5.92-20.24-12.26c-12.42-15.71-10.83-37.8-7.74-56.37c6.48-38.93,24.22-74.97,46.89-106.96
				c12.02-16.96,25.51-32.87,39.62-48.11c14.4-15.55,29.85-29.96,44.86-44.89c3.98-3.95,8.05-7.82,12.14-11.66
				c0.25-0.07,0.5-0.14,0.76-0.22c1.65-0.5,2.49-1.71,2.71-3.03c2.22-2.08,4.44-4.16,6.64-6.24c1.5-1.42-0.71-3.55-2.24-2.24
				c-1.84,1.57-3.68,3.14-5.53,4.71c-0.86-0.89-2.14-1.35-3.71-0.88c-25.58,7.8-53.68,1.45-78.56,12.28
				c-12.98,5.65-22.37,16.09-30.97,26.99c-9.39,11.9-18.46,24.05-27.2,36.44c-17.6,24.97-33.84,50.91-48.59,77.67
				c-14.32,25.97-27.52,52.93-35.48,81.6c-7.01,25.22-10.91,53.34-3.76,78.98c3.14,11.26,8.7,22.15,17.3,30.22
				c9.56,8.97,21.93,13.53,34.84,14.73c13.26,1.23,26.75-0.95,39.6-4.12c13.3-3.29,26.4-7.52,39.23-12.32
				c25.92-9.68,50.83-21.88,74.93-35.42c48.67-27.34,94.11-59.89,141.43-89.42c5.89-3.68,11.81-7.3,17.76-10.87
				c5.23-3.13,10.46-6.72,16.14-8.99c4.14-1.65,9.8-3.45,14.18-1.6c5.81,2.47,4.12,10.54,2.75,15.25
				c-3.77,12.93-13.68,23.56-22.2,33.61c-8.32,9.81-16.95,19.37-25.7,28.8c-35.05,37.77-72.63,73.8-101.57,116.7
				c-13.99,20.73-26.23,43.39-33.6,67.38c-3.37,10.97-5.33,24.61,1.94,34.5c7.59,10.33,20.7,11.27,32.22,8.17
				c13-3.5,24.77-11.22,36.04-18.33c12.29-7.76,24.18-16.14,35.87-24.78c23.44-17.32,46.09-35.7,69.92-52.5
				c5.95-4.19,11.96-8.31,18.09-12.23c4.84-3.1,12.35-7.91,17.89-3.6c3.61,2.8,4.34,8.2,4.46,12.44c0.17,6.19-1.14,12.27-2.28,18.32
				c-5.82,30.68-14.83,60.65-24.83,90.2c-4.9,14.47-10.03,28.85-15.17,43.24c-0.82,2.31,1.36,5.23,3.83,5.02
				c9.71-0.8,19.42-1.6,29.12-2.41c4.95-0.41,9.89-0.82,14.84-1.23c4.08-0.34,12.99,1.47,16.42-1.08
				c9.34-6.96,37.15-161.43,43.49-194.39c4.18-21.75,7.54-51.06-14.6-64.48c-11.6-7.03-26.32-6.93-39.11-3.75
				c-9.4,2.34-23.11,10.65-32.55,16.92c-1.23,0.82-2.59-0.82-1.56-1.88c25.38-26.3,49.6-53.74,72.54-82.18
				c12.48-15.47,24.72-31.3,34.53-48.63c8.61-15.2,16.12-31.98,17.47-49.59C509.88,254.43,506.85,238.33,495.23,229.11z"/>
			<path style="clip-path:url(#SVGID_00000178177585550488038520000009029934469763087540_);fill:#FFF000;" d="M479.93,263.73
				c-9.26-11.84-25.32-11.05-38.4-7.4c-13.41,3.74-26.48,9.38-39.11,15.18c-51.74,23.76-97.27,58.59-143.07,91.91
				c-45.61,33.19-92.8,66.3-146.46,85.1c-14.72,5.15-31.24,9.52-46.76,5.44c-13.53-3.56-23.56-13.79-29.44-26.17
				c-6.95-14.63-7.19-31.58-5.18-47.35c1.97-15.5,6.01-30.81,11.19-45.53c21.62-61.33,65.4-111.48,111.07-156.4
				c11.53-11.34,22.99-22.75,34.52-34.1c2.37-2.33-1.16-5.77-3.61-3.61c-1.37,1.2-2.73,2.4-4.1,3.6c-0.75-1.69-2.91-3.02-4.74-2.29
				c-11.62,4.62-24.26,1.75-36.38,2.87c-5.95,0.55-11.92,1.94-16.96,5.28c-5.74,3.8-9.7,9.45-13.71,14.91
				c-17.22,23.4-33.47,47.5-48.72,72.23C44.91,262,30.75,287.19,17.65,312.93c-13.06,25.65-26.4,51.92-34.81,79.54
				c-7.54,24.76-10.83,52.67-0.99,77.3c4.45,11.16,11.35,21.02,21.08,28.18c9.77,7.18,21.66,10.68,33.64,11.63
				c25.48,2.03,50.95-6.67,74.24-16.05c25.17-10.14,49.2-22.83,72.46-36.76c23.58-14.12,46.41-29.46,69.26-44.71
				c22.92-15.29,45.79-31.13,69.99-44.36c12.16-6.65,24.96-12.3,38.61-15.02c3.39-0.67,11.42-2.76,13.95,0.96
				c1.5,2.2-0.86,5.19-2.21,6.85c-2.21,2.74-4.75,5.26-7.14,7.84c-18.45,19.97-37.23,39.62-55.7,59.57
				c-36.92,39.88-72.94,81.07-101.73,127.33c-7.04,11.32-13.81,22.91-19.71,34.87c-5.14,10.43-9.58,22.18-9.11,33.99
				c0.45,11.34,6.23,22.01,16.71,27.01c10.38,4.95,22.46,4.36,33.41,1.78c23.27-5.47,44.65-18.75,63.47-33.06
				c19.87-15.11,38.01-32.3,57.09-48.36c4.71-3.96,9.47-7.86,14.33-11.62c4.74-3.66,9.57-7.64,14.81-10.55
				c2.05-1.14,4.91-2.58,7.34-1.9c2.45,0.69,2.75,3.34,2.47,5.51c-0.35,2.71-1.47,5.31-2.59,7.77c-1.7,3.72-3.41,7.44-5.12,11.16
				l-39.11,85.19c-6.36,13.86-12.73,27.72-19.09,41.58c-0.93,2.03-0.4,5.37,2.35,5.78c9.07,1.35,18.19,2.35,27.35,2.88
				c4.04,0.23,8.08,0.38,12.12,0.45c4.47,0.07,9.11,0.34,13.55-0.29c8.88-1.27,10.33-9.9,12.75-17.11
				c2.84-8.47,5.68-16.95,8.51-25.42l34.41-102.75c5.7-17.01,11.91-33.95,16.93-51.18c4.11-14.09,7.79-31.11,1.71-45.17
				c-2.68-6.19-7.72-11.29-14.51-12.66c-7.5-1.51-15.01,1.39-21.47,5c-12.58,7.03-24.23,16.12-35.32,25.26
				c-44.99,37.07-81.14,84.65-130.68,116.2c-4.95,3.15-11.05,7.61-17.3,6.96c-7.08-0.73-3.81-10.92-2.55-15.23
				c4.32-14.73,14.27-27.21,23.63-39.08c19.95-25.28,41.68-49.1,64.02-72.28c44.74-46.41,92.09-90.41,133.82-139.64
				c5.15-6.08,10.22-12.23,15.17-18.47c4.95-6.23,9.95-12.57,13.47-19.74C487.09,290.11,488.64,274.86,479.93,263.73z"/>
			<path style="clip-path:url(#SVGID_00000178177585550488038520000009029934469763087540_);fill:#EB1C24;" d="M266.71,504.03
				c37.03-39.98,79.28-74.61,117.63-113.26c18.97-19.12,37.39-39.31,52.76-61.5c4.1-5.92,7.91-13.44,5.62-20.79
				c-1.84-5.91-7.07-9.62-12.85-11.14c-5.95-1.56-12.12-1.09-18.13-0.15c-7.45,1.17-14.74,3.2-21.69,6.12
				c-14.77,6.21-28.29,14.67-41.79,23.21c-13.66,8.65-27.19,17.49-40.67,26.42c-26.68,17.68-53.18,35.62-80.04,53.02
				C180.31,436.57,32.62,542.56,8.02,434.74c-5.79-25.36-2.69-53.3,4.39-78.1c17.12-59.93,57.89-108.11,100.62-151.83
				c7.69-7.86,15.27-15.81,22.87-23.76c1.88,0.26,4.12-0.68,4.3-2.85c0.56-1.15,1.08-2.21,1.64-3.35c0.93-0.97,1.87-1.95,2.8-2.93
				c1.1-1.14,0.8-2.53-0.07-3.36c1.53-3.52,3.06-7.03,4.59-10.55c1.2-2.77-0.18-5.9-3.45-6.02c-16.13-0.59-32.26-1.19-48.39-1.78
				c-7.73-0.28-15.47-0.76-23.2-0.84c-3.19-0.03-6.54,0.27-9.39,1.82c-2.93,1.6-4.9,4.29-6.58,7.09
				c-15.71,26.2-30.69,52.95-45.26,79.8c-26.36,48.56-51.75,99.37-67.59,152.94c-14.29,48.33-25.36,105.52,15.27,144.7
				c24.73,23.85,59.8,29.49,92.32,20.87c28.52-7.56,53.7-23.94,78.76-38.87c26.83-16,51.98-35,77.8-52.56
				c45.64-31.04,90.97-62.41,135.74-94.68c2.66-1.92,5.71,1.8,3.32,4.04c-37.7,35.2-77.44,68.23-113.42,105.25
				c-26.06,26.82-50.39,56.89-70.09,89.22c-16.53,27.12-36.87,67.81-14.83,97.52c29.12,39.23,79.27,22.33,120.59-7.69
				c17.01-12.36,36.72-33.81,52.54-47.6c17.49-15.25,29.98-31.81,45.45-49.36c1.97-2.24,5.46,0.37,3.88,2.9
				c-19.75,31.57-49.37,72.94-66.22,96.15c-7.3,10.06-14.7,20.04-22.11,30.03c-1.24,1.68-0.3,4.45,1.41,5.38
				c12.57,6.89,43,5.27,52-4.69c9.41-10.42,68.24-128.23,74.08-140.14c5.71-11.65,11.21-24.55,13.12-37.46
				c0.96-6.5-1.85-12.56-8.63-13.97c-6.29-1.3-12.55,1.08-18.17,3.69c-13.31,6.17-24.35,16.47-34.99,26.35
				c-21.4,19.86-41.48,41.14-63.75,60.06c-10.91,9.27-22.36,17.93-34.6,25.37c-11.31,6.88-24.02,14.19-37.61,14.64
				c-6.16,0.21-12.41-1.29-17-5.61c-4.61-4.35-6.91-10.68-7.29-16.91c-0.89-14.62,7.66-28.17,14.95-40.18
				C231.73,544.55,248.55,523.64,266.71,504.03z"/>
			<path style="clip-path:url(#SVGID_00000178177585550488038520000009029934469763087540_);fill:#00B3D2;" d="M977.08,542.46
				c-1.95-0.82-3.8,0.01-4.99,1.64c-16.01,21.82-30.52,44.71-44.23,68.04c-6.86,11.68-13.52,23.48-20.09,35.32
				c-3.28,5.92-6.55,11.86-9.8,17.81c-1.66,3.04-3.32,6.08-4.98,9.12c-0.75,1.38-1.51,2.77-2.26,4.15c-0.86,1.59-1.88,3.2-2.32,4.97
				c-1.11,4.48,2.02,7.55,4.98,10.35c2.52,2.39,5.26,4.75,8.4,6.29c3.09,1.51,6.51,2.39,9.96,1.99c0.17-0.02,0.34-0.04,0.51-0.07
				c-0.76,1.16-1.52,2.32-2.29,3.48c-0.74,1.12,0.93,2.38,1.85,1.43c2.04-2.13,3.93-4.4,5.7-6.75c1.23-0.8,2.26-1.88,2.92-3.29
				c0.36-0.52,0.57-1.12,0.62-1.72c3.11-4.71,5.88-9.65,8.5-14.62c5.03-9.51,9.29-19.42,13.26-29.41
				c4.14-10.44,8.17-20.92,12.07-31.46c4.17-11.27,8.41-22.55,12.22-33.95c4.27-12.8,8.34-25.67,12.29-38.57
				C979.98,545.27,978.86,543.21,977.08,542.46z"/>
			<path style="clip-path:url(#SVGID_00000178177585550488038520000009029934469763087540_);fill:#00B3D2;" d="M799.41,478.11
				c-1.28-5.87-2.99-12.15-6.63-17.04c-4-5.37-9.94-8.07-16.63-7.14c-6.45,0.9-12.11,4.55-17.21,8.39
				c-5.47,4.11-10.66,8.57-15.62,13.29c-9.55,9.09-18.32,18.97-27.13,28.77c-17.21,19.14-34.09,38.6-49.83,58.98
				c-15.54,20.13-29.96,41.19-42.06,63.58c-6.1,11.29-11.58,22.9-16.37,34.8c-4.55,11.29-11.49,26.79-1.49,37.21
				c2.33,2.43,5.48,4.14,8.78,4.62c-0.41,0.15-0.83,0.31-1.24,0.46c-1.56,0.55-0.93,3.01,0.69,2.51
				c15.17-4.74,29.24-12.4,41.59-22.41c13.35-10.83,23.68-24.41,32.79-38.88c9.79-15.54,19.17-31.39,27.76-47.62
				c6.78-12.82,28.87-55.35,40.41-74.17c1.35-2.2,4.74-0.78,4.12,1.72c-2.23,8.92-5.41,20.45-6.57,24.95
				c-3.58,13.82-6.73,27.76-9.22,41.81c-4.97,27.96-7.41,56.47-5.51,84.84c0.46,6.9,1.03,13.88,3.91,20.26
				c2.44,5.39,6.91,10.02,12.58,11.94c6.25,2.12,13.01-0.01,18.02-3.96c5.16-4.07,8.21-10.08,10.53-16.09
				c9.93-25.77,11.75-54.05,13.27-81.35c1.62-29.09,3.14-58.21,3.63-87.34C802.21,506.18,802.41,491.93,799.41,478.11z"/>
			<g style="clip-path:url(#SVGID_00000178177585550488038520000009029934469763087540_);">
				<g>
					<path class="st14" d="M547.47,203.35c0.1,0,0.1-0.16,0-0.16C547.37,203.19,547.37,203.35,547.47,203.35L547.47,203.35z"/>
				</g>
			</g>
			<path style="clip-path:url(#SVGID_00000178177585550488038520000009029934469763087540_);fill:#00B3D2;" d="M648.22,212.68
				c-0.63-12.51-1.5-26.17-10.61-35.74c-7.38-7.76-18.18-10.94-28.48-12.37c-13.25-1.84-26.82-1.77-40.17-2.19
				c-14.7-0.46-29.4-0.76-44.1-0.91c-59.71-0.61-119.44,1.33-178.99,5.8c-7.33,0.55-14.66,1.14-21.98,1.77
				c-2.09,0.18-3.31,1.63-3.69,3.25c-1.5,0.44-2.97,1.03-4.38,1.78c-1.25,0.66-0.15,2.53,1.11,1.9c1.08-0.55,2.19-0.99,3.31-1.34
				c0.43,1.46,1.63,2.59,3.65,2.41c4.11-0.35,8.22-0.69,12.32-1.01c0.05,0.11,0.04,0.11,0.09,0.22
				c-43.1,36.85-91.83,66.75-133.99,104.72c-10.55,9.5-20.69,19.46-30.14,30.05c-4.72,5.29-9.3,10.72-13.6,16.35
				c-4.29,5.62-8.24,12.04-8.37,19.33c-0.11,6.14,2.58,12.65,8.02,15.87c6.39,3.79,14.03,1.77,20.47-0.74
				c14.21-5.54,28.04-12.1,41.51-19.25c53.27-28.26,100.55-66.28,153.05-95.85c51.25-28.86,111.48-51.73,171.23-42.85
				c7.1,1.06,14.52,2.28,21.33,4.6c1.61,0.55,4.35,1.57,4.79,3.48c0.66,2.88-3.48,6.81-5.24,8.7c-13.8,14.8-48.69,35.18-29.36,59.28
				c4.35,5.42,11,7.21,17.58,8.21c8.37,1.28,16.76,2.45,25.15,3.61c0.05,0.01,0.1,0.01,0.14,0.02c4.76,0.66,6.2,6.87,2.19,9.52
				c-21.68,14.36-41.65,31.34-59.2,50.5c-5.73,6.25-11.19,12.74-16.39,19.43c-5.02,6.47-9.97,13.02-13.63,20.38
				c-6.76,13.63-9.7,31.81,3.95,42.37c6.97,5.4,14.74,6.81,22.59,6c5.55-0.57,9.34,5.46,6.31,10.14
				c-19.54,30.21-35.07,62.99-46.02,97.28c-7.49,23.45-13.14,48.48-10.01,73.2c2.45,19.35,9.96,37.9,21.51,53.61
				c13.14,17.87,30.85,31.86,51.57,39.9c1.99,0.77,4.37-0.86,4.88-2.77c7.72-29.01,15.08-58.13,22.49-87.23
				c3.68-14.46,7.33-28.93,10.94-43.41c3.52-14.11,7.14-28.21,9.87-42.5c2.72-14.22,4.46-28.55,4.57-43.03
				c0.11-14.77-1.01-29.51-1.24-44.27c-0.21-14.01,0.55-27.95,3.76-41.63c3.04-13,7.74-25.57,12.96-37.84
				c10.61-24.96,22.6-49.19,29.55-75.54C646.62,268.86,649.62,240.63,648.22,212.68z"/>
			<path style="clip-path:url(#SVGID_00000178177585550488038520000009029934469763087540_);fill:#FF5004;" d="M883.65,172.04
				c-1.75-1.88-3.83-3.49-5.99-4.87c-4.44-2.84-9.43-4.7-14.3-6.66c-6.06-2.44-12.15-4.82-18.46-6.53
				c-1.66-0.45-3.44-1.05-5.17-1.05c-0.81,0-1.58,0.21-2.27,0.57c-0.45-1.9-1-3.77-1.54-5.67c-0.37-1.32-2.46-1.09-2.43,0.33
				c0.07,3.07,0.04,6.13,0.11,9.2c0.07,2.92,0.02,5.84,0.03,8.76c0.03,6.03-0.2,12.05-0.77,18.05c-0.28,2.91-0.36,5.85-0.61,8.77
				c-0.22,2.57-0.55,5.42,1,7.69c0.94,1.38,2.33,2.4,4.01,2.62c1.97,0.26,3.58-0.39,5.33-1.24c2.77-1.35,5.52-2.71,8.28-4.07
				c5.52-2.71,11.04-5.42,16.57-8.13l8.28-4.07c2.56-1.26,5.36-2.35,7.79-3.86c1.68-1.05,2.86-2.81,2.8-4.84
				C886.24,175.02,884.97,173.46,883.65,172.04z"/>
			<path style="clip-path:url(#SVGID_00000178177585550488038520000009029934469763087540_);fill:#00D98E;" d="M1007.99,488.13
				c-4.14-5.96-10.07-9.37-16.75-11.88c-6.53-2.45-13.04-4.4-18.42-9.07c-10-8.68-15.09-21.66-17.78-34.33
				c-6.83-32.18-0.68-65.89-10.79-97.59c-4.25-13.31-11.14-26.16-21.71-35.5c-11.4-10.07-25.92-15.17-40.6-18.19
				c-0.48-0.1-0.97-0.19-1.45-0.28c0.57-0.24,1.14-0.47,1.71-0.71c19.93-8.38,39.59-17.53,58.04-28.85
				c9.36-5.74,18.36-12.05,26.89-18.97c7.76-6.29,15.24-13.71,18.74-23.28c1.77-4.85,2.1-10.2,0.88-15.22c-1.21-5-4-9.55-7.45-13.32
				c-6.75-7.39-16.42-11.77-26.1-13.7c-9.87-1.97-20-1.83-29.97-0.77c-10.31,1.09-20.52,3.04-30.48,5.92
				c-15.29,4.41-41.26,19.04-52.54,25.69c-2.27,1.34-5.1-0.42-4.91-3.05c0.39-5.39,0.81-12.67,0.81-16.17
				c0.01-5.56-0.4-11.1-0.9-16.64c-0.5-5.52-1.13-11.02-2.12-16.47c-1.14-6.25-2.62-12.35-4.69-18.35
				c-0.29-0.83-1.54-0.49-1.36,0.37c0.5,2.42,0.96,4.85,1.4,7.28c-1.1-1.73-2.43-3.27-4.05-4.4c-4.6-3.21-10.15-0.86-13.4,3.06
				c-3.34,4.03-5.21,9.1-7.26,13.85c-8.89,20.58-15.76,42.05-20.37,63.99c-2.31,10.99-4.04,22.11-5.23,33.27
				c-0.1,0.93-0.19,1.86-0.28,2.78c-1-1.87-2-3.73-3.02-5.54c-3.81-6.76-7.65-13.52-11.79-20.09c-8-12.66-17.26-24.82-29.11-34.14
				c-21.2-16.68-48.99-24.47-75.81-21.85c-12.98,1.27-25.53,4.84-37.12,10.82c-0.13,0.07-0.23,0.15-0.35,0.22
				c-0.11-0.02-0.22-0.04-0.33-0.06c-4.79-0.81-9.61-1.42-14.45-1.83c-9.67-0.81-19.38-3.67-29.03-2.72c-4.96,0.49-5.04,8.3,0,7.84
				c16.67-1.53,34.7,1.84,50.92,6.37c3.63,1.01,12.14,4.34,11.3,9.37c-0.51,3.09-4.82,5.31-7.07,6.98
				c-3.6,2.68-7.21,5.36-10.81,8.04c-7.01,5.21-14.08,10.34-21.01,15.64c-5.78,4.42-11.33,9.15-15.55,15.13
				c-3.94,5.59-6.13,12.37-5.19,19.23c0.9,6.55,4.65,12.45,9.73,16.61c5.08,4.15,10.67,6.46,16.52,7.54c4.34,0.8,5.63,6.36,2,8.86
				c-4.53,3.12-9.03,6.31-13.47,9.56c-13.34,9.77-26.66,19.86-38.82,31.09c-10.97,10.13-21.26,22.05-26.43,36.26
				c-4.49,12.35-4.68,27.94,5.1,37.88c5.51,5.6,12.7,8.04,20.22,8.44c3.94,0.21,6.03,4.77,3.63,7.9
				c-14.11,18.47-26.38,38.33-36.48,59.28c-13.94,28.91-24.9,60.25-28.38,92.28c-3.31,30.51,1.88,62.1,21.3,86.6
				c16.96,21.41,43.13,34.56,70.67,30.3c30.1-4.65,54.62-27.24,74.14-49.09c20.77-23.24,37.92-49.4,54.24-75.87
				c8.21-13.32,16.24-26.76,24.49-40.06c4.12-6.64,8.29-13.24,12.57-19.77c3.83-5.86,7.79-11.83,13.7-15.83
				c4.47-3.03,10.78-5.06,14.53,0.22c3.4,4.78,2.12,12.05,1.02,17.37c-3.53,17.03-8,33.86-11.83,50.82
				c-7.42,32.9-13.63,67.41-8.69,101.15c4.22,28.79,20.46,58.09,50.22,66.42c29.93,8.38,55.79-12.79,73.94-34.14
				c20.72-24.38,37.19-51.92,53-79.63c7.94-13.92,15.75-27.91,23.96-41.67c3.91-6.57,7.65-13.55,12.29-19.63
				c1.72-2.25,3.9-4.77,6.61-5.84c3.15-1.24,6.02,0.61,8.93,1.65c15.08,5.39,20.63-14.07,23.2-24.9
				C1014.14,513,1015.31,498.66,1007.99,488.13z"/>
			<path style="clip-path:url(#SVGID_00000178177585550488038520000009029934469763087540_);fill:#FF5004;" d="M992.38,497.15
				c-2.17-8.82-8.83-16.8-18.19-17.99c-5.32-0.67-10.85,0.94-16.05-0.65c-3.96-1.21-7.37-4.07-9.8-7.36
				c-6.4-8.67-6.51-19.77-5.82-30.09c0.81-12.14,1.88-24.21,2.1-36.39c0.22-11.91,0.01-23.86-0.85-35.74
				c-1.44-19.86-5.76-41.03-21.29-54.9c-14.04-12.53-33.46-17.18-51.91-16.95c-22.73,0.28-44.53,7.92-66.43,13.13
				c-10.66,2.54-22.64,5.71-33.47,2.45c-8.24-2.47-14.26-8.96-18.26-16.35c-10.15-18.74-6.98-40.93-10.87-61.21
				c-3.68-19.16-15.11-35.98-31.67-46.36c-8.69-5.45-18.39-8.54-28.51-9.92c-11.38-1.55-22.88-1.22-34.31-2.09
				c-5.55-0.42-11.01-1.22-16.39-2.65c-1.98-0.53-3.5,0.39-4.31,1.76c-3.87,6.54-17.74,3.49-23.6,2.78
				c-4.5-0.54-9.66-0.71-14.14-0.06c-15.75,2.28,8.17,0.03,14.14,0.06c14.66,0.08,30.23,1.1,44.34,7.97
				c5.24,2.55,13.41,8.55,9.5,15.32c-1.79,3.1-4.51,5.64-6.93,8.25c-2.88,3.11-5.75,6.22-8.63,9.34c-4.94,5.34-10.05,10.63-13.66,17
				c-3.22,5.69-5.5,12.68-3.43,19.18c1.87,5.86,6.56,10.25,12.43,11.94c5.75,1.66,11.9,0.93,17.72,0.13
				c2.91-0.4,5.81-0.89,8.72-1.26c1.35-0.17,2.7-0.32,4.06-0.41c0.34-0.02,1.14,0.07,1.75,0.04c-0.21,0.38-0.42,0.78-0.49,0.87
				c-0.45,0.56-1,1.05-1.53,1.53c-1.43,1.31-2.91,2.58-4.38,3.84c-2.74,2.34-5.54,4.62-8.38,6.85c-5.63,4.43-11.44,8.64-17.29,12.78
				c-23.4,16.57-48.06,32.09-67.68,53.28c-9.01,9.73-18,22.9-12.68,36.69c2.24,5.82,6.57,10.57,12.7,12.3
				c5.37,1.51,11,0.5,16.38,1.66c1.93,0.42,3.81,1.16,4.55,3.16c1.1,2.98-0.79,6.66-2.1,9.25c-6.47,12.87-16.03,23.84-23.8,35.89
				c-15.33,23.76-27.92,50.7-36.59,77.68c-10.11,31.44-19.3,74.61,2.65,102.95c5.22,6.74,11.78,12.34,18.99,16.84
				c12.38,7.71,27.89,7.95,41.45,3.43c14.17-4.72,26.01-14.26,36.42-24.7c20.81-20.87,39.42-44.12,57.63-67.25
				c18.21-23.13,35.84-46.71,53.96-69.9c18.13-23.2,36.77-46.04,56.92-67.52c10.05-10.72,20.48-21.09,31.36-30.96
				c10.96-9.95,22.29-19.76,35.17-27.18c3.14-1.81,6.42-3.7,9.84-4.94c1.98-0.72,4.97-1.6,6.08,0.83c2.1,4.62-2.17,11.11-4.48,14.79
				c-6.61,10.55-16.36,18.72-26.02,26.39c-19.49,15.47-49.35,35.43-42.15,64.48c1.83,7.39,4.62,14.23,4.93,21.94
				c0.32,7.87-0.95,15.64-2.86,23.25c-3.95,15.72-10.03,30.84-14.26,46.49c-4.26,15.79-7.39,31.92-8.83,48.23
				c-1.32,15-1.52,30.66,1.4,45.5c2.24,11.36,7,23.09,16.53,30.23c11.82,8.87,27.01,5.91,38.95-1.07
				c12.11-7.09,22.58-17.49,31.93-27.85c9.33-10.34,17.74-21.5,25.81-32.85c16.04-22.54,30.81-46.15,49.6-66.58
				c8.1-8.8,20.56-19.87,33.38-14.59c2.17,0.89,4.17-1.01,4.92-2.79C990.84,519.1,995.09,508.14,992.38,497.15z"/>
			<path style="clip-path:url(#SVGID_00000178177585550488038520000009029934469763087540_);fill:#FFA800;" d="M991.92,485.92
				c-1.41-4.71-4.19-9.12-8.79-11.23c-4.29-1.97-8.92-1.69-13.44-0.76c-8.65,1.78-17.52,6.27-25.46,0.05
				c-8.01-6.27-9.63-16.79-9.34-26.34c0.36-12.01,2.53-24,4.21-35.87c1.73-12.23,3.39-24.52,3.78-36.88
				c0.63-20.12-2.51-40.4-12.57-58.1c-9.25-16.28-24.27-29.07-43.05-32.4c-22.16-3.92-43.99,3.92-65.37,8.68
				c-9.94,2.21-21.71,5.13-31.71,1.88c-8.43-2.73-12.51-10.99-14.94-18.9c-2.76-8.98-4.25-18.28-7.16-27.23
				c-3.02-9.33-6.91-18.45-11.83-26.94c-10.08-17.39-24.7-31.79-43.2-39.96c-19.52-8.62-41.02-10.84-62.14-11.63
				c-5.23-0.19-10.45-0.3-15.68-0.39c-1.97-0.03-3.18,1.12-3.64,2.57c-10.79-1.71-21.59-3.42-32.39-5.09
				c-2.07-0.32-4.18,0.53-4.78,2.72c-0.51,1.86,0.63,4.44,2.72,4.78c16.07,2.63,32.15,5.21,48.23,7.77
				c6.89,1.1,14.14,2.15,20.23,5.78c4.82,2.87,9.16,8.17,8.74,14.08c-0.38,5.46-4.95,9.55-8.75,12.96
				c-4.1,3.68-8.72,7.19-11.23,12.24c-4.09,8.25-4.39,22.41,7.06,24.63c3.39,0.66,6.68-0.14,9.83-1.41
				c2.63-1.06,5.39-2.63,8.29-2.69c3.84-0.08,6.54,3.61,7.63,7.16c3.6,11.75-7.94,19.38-16.75,24.35
				c-12.55,7.07-24.88,14.29-36.63,22.65c-12.01,8.54-23.49,17.82-34.33,27.8c-9.47,8.73-21.62,19.26-20.9,33.43
				c0.31,6.07,2.81,11.93,7.84,15.53c2.51,1.79,5.55,2.64,8.46,3.55c2.34,0.73,5.02,1.58,6.14,3.98c2.2,4.74-1.01,11.07-3.23,15.21
				c-3.66,6.84-7.54,13.55-11.5,20.21c-7.91,13.34-16.16,26.48-23.79,39.98c-14.77,26.15-27.37,54.34-29.95,84.6
				c-1.97,23.15,2.52,53.43,25.83,64.88c12.39,6.08,26.9,4.99,39.38-0.25c12.88-5.41,23.26-15.17,32.19-25.7
				c8.85-10.43,16.94-21.53,25.25-32.39c8.12-10.62,16.23-21.26,24.42-31.83c16.41-21.19,33.13-42.17,50.77-62.36
				c17.52-20.04,35.97-39.32,55.89-57c19.67-17.46,40.79-33.29,63.53-46.55c5.72-3.34,11.54-6.55,17.47-9.51
				c4.64-2.32,10.53-4.79,15.81-3.69c5.75,1.2,6.98,7.02,6.79,12.12c-0.22,6.19-1.87,12.44-4,18.22
				c-4.34,11.81-12.08,22.41-21.93,30.23c-10.77,8.56-24.18,13.02-34.58,22.14c-9,7.89-15.85,21.55-11.71,33.58
				c1.06,3.07,2.76,5.59,4.65,8.19c2.1,2.88,3.41,5.51,2.9,9.19c-0.5,3.61-2.04,7.06-3.31,10.45c-1.4,3.72-2.75,7.47-4.04,11.23
				c-10.08,29.29-17.38,60-20.44,90.86c-1.38,13.89-0.66,29.02,7.83,40.73c3.66,5.04,8.33,9.26,14.1,11.71
				c6.42,2.73,13.51,2.88,20.22,1.13c13.66-3.57,25.23-13.65,35.33-23.06c10.11-9.42,19.23-19.85,27.88-30.6
				c8.77-10.91,17.1-22.17,25.61-33.29c4.1-5.36,8.25-10.68,12.53-15.9c4.36-5.33,8.73-10.77,13.92-15.33
				c4.3-3.77,9.6-6.97,15.44-7.33c5.28-0.33,10.27,1.2,13.59,5.46c1.99,2.55,5.83,0.77,6.68-1.76
				C994.14,509.52,995.2,496.88,991.92,485.92z"/>
			<path style="clip-path:url(#SVGID_00000178177585550488038520000009029934469763087540_);fill:#EB1C24;" d="M1011.2,285.18
				c4.54-15.49,7.6-31.72,7.39-47.91c-0.18-14.6-3.6-29.87-14.16-40.58c-10-10.14-24.24-14.66-38.1-16.04
				c-15.77-1.57-31.9,0.85-47.01,5.4c-30.2,9.09-57.87,26.22-82.87,45.1c-13.5,10.2-26.38,21.13-38.93,32.45
				c-2.94,2.65-7.35-0.71-5.57-4.24c1.65-3.28,3.25-6.58,4.79-9.91c8.94-19.23,16.34-39.61,16.94-61.04
				c0.16-5.84-0.27-11.66-1.24-17.41c-0.96-5.71-3.22-11.4-5.74-16.59c-0.78-1.6-2.83-1.41-3.89-0.35c-1.8-1.01-4.48-0.38-5.54,1.47
				c-20.07,35.17-39.86,70.52-59.12,106.14c-19.2,35.51-37.82,71.36-55.24,107.78c-9.31,19.47-17.86,40.18-17.13,62.17
				c0.11,3.25,3.23,4.61,5.97,3.43c28.91-12.51,53.58-32.67,76.27-54.18C771,359.09,792.36,335.6,816.44,315
				c11.67-9.98,23.97-19.19,37.27-26.94c15.25-8.88,32.67-17.27,50.76-16.33c7.83,0.41,15.59,2.76,22.05,7.25
				c6.62,4.6,10.86,11.65,13.07,19.29c2.39,8.26,2.69,16.91,2.28,25.45c-0.42,8.89-1.73,17.68-3.51,26.39
				c-7.35,35.91-22.97,70.98-21.51,108.25c0.18,4.64,0.67,9.25,1.38,13.83c0.41,2.63,3.81,3.49,5.83,2.37
				c16.36-9.08,31.47-20.51,44.65-33.8c6.71-6.77,13.23-14.03,18.62-21.91c2.78-4.06,5.09-8.53,6.35-13.31
				c1.2-4.55,1.54-9.32,1.43-14c-0.27-10.67-3.01-21.51-1.33-32.18c0.71-4.5-4.51-6.77-7.25-3.06c-2.31,3.13-4.95,6-7.82,8.62
				c5.04-11,9.99-22.04,14.81-33.13C1000.15,316.55,1006.52,301.15,1011.2,285.18z"/>
			<path style="clip-path:url(#SVGID_00000178177585550488038520000009029934469763087540_);fill:#6ABE45;" d="M1016.33,423.54
				c-0.45-7.5-0.74-15.37-3.93-22.3c-7.35-15.97-27.16-13.39-40.19-6.73c-16.47,8.42-27.04,26.73-37.51,41.24
				c-1.3,1.8-4.05,0.06-2.99-1.88c15.31-28.03,38.78-71.53,45.5-87.45c9.85-23.37,18.72-47.62,22.42-72.82
				c1.76-12,2.64-24.39,1.04-36.46c-1.28-9.69-4.28-19.42-10.77-26.93c-7.52-8.7-18.59-10.91-29.6-10.84
				c-12.13,0.08-24.23,2.31-35.8,5.91c-22.97,7.15-44.41,19.2-64.52,32.24c-40.17,26.06-69.8,54.56-109.5,92.22
				c-18.72,17.76-46.22,52.99-70.31,81.74c-2.13,2.55-6.04-0.41-4.17-3.16c20.65-30.26,47.87-70.41,57.19-84.32
				c15.07-22.48,29.34-45.56,41.45-69.78c11.28-22.58,25.07-49.62,13.9-74.88c-4.71-10.65-13.89-17.84-24.91-21.09
				c-7.47-2.21-15.17-2.69-22.87-2.38c0.39-1.01,0.39-2.14-0.25-3.23c-0.97-1.66-3.68-2.71-5.38-1.41
				c-2.35,1.79-4.58,3.69-6.72,5.69c-1.96,0.23-3.92,0.48-5.88,0.74c-2.43,0.33-1.54,4.69,1.2,3.75c0.13,0.18-0.03-0.04,0.1,0.14
				c-3.19,3.5-6.08,7.27-8.63,11.33c-1.22,1.93-0.24,4.12,1.4,5.34c13.16,9.8,14.09,28.33,12.1,43.29
				c-1.24,9.35-3.87,18.6-6.51,27.63c-2.97,10.12-6.43,20.09-10.3,29.9c-15.42,39.06-37.33,75.21-60.83,109.87
				c-11.66,17.2-24.33,33.84-34.55,51.96c-4.88,8.65-9.17,17.7-12.3,27.14c-3.05,9.22-5.3,19.35-5.07,29.12
				c0.18,8.01,3.49,17.5,12.72,18.3c5.24,0.46,9.99-2.54,13.96-5.6c3.92-3.01,7.73-6.17,11.54-9.32
				c15.4-12.73,30.31-26.05,44.99-39.6c29.3-27.02,57.78-54.96,87.95-81.02c29.81-25.75,61.56-50.11,96.64-68.3
				c8.92-4.63,18.86-8.86,29.11-8.57c9.33,0.27,17.33,5.15,22.23,13.03c11.32,18.19,3.82,40.57-3.23,58.87
				c-15.21,39.53-39.01,74.96-55.8,113.77c-8.72,20.15-16.69,41.74-16.46,63.99c0.08,7.93,1.96,17.19,8.86,22.05
				c9.24,6.5,19.35-0.58,26.48-6.68c18.02-15.43,36.02-30.87,54.01-46.33c8.86-7.62,17.64-15.35,26.62-22.83
				c7.77-6.47,16.02-12.6,25.27-16.81c8.11-3.69,17.1-5.33,25.84-3.11c2.71,0.69,4.69-1.26,4.98-3.8
				C1016.83,458.06,1017.36,440.76,1016.33,423.54z"/>
			<path style="clip-path:url(#SVGID_00000178177585550488038520000009029934469763087540_);fill:#EB1C24;" d="M998.54,460.08
				c-2.79-13.58-12.46-20.68-26.05-15.4c-20.61,8.01-36.33,28.69-49.91,45.32c-17.37,21.27-32.94,45.25-55.24,61.82
				c-1.27,0.94-2.69,1.91-4.27,1.86c-4.11-0.11-4.9-5.92-4.06-9.95c2.84-13.58,9.05-26.2,15.38-38.55
				c18.09-35.27,37.64-69.84,53.7-106.11c8.07-18.23,15.27-36.87,20.79-56.04c5.14-17.82,11.18-37.85,4.1-56.03
				c-4.34-11.15-14.15-18.34-25.74-20.67c-12.51-2.51-25.28,0.31-36.87,5.17c-11.88,4.98-23.06,11.62-34.05,18.31
				c-10.66,6.48-21.08,13.34-31.28,20.51c-20.51,14.4-40.16,30.02-59.2,46.32c-19.07,16.32-37.53,33.33-55.76,50.58
				c-29.28,27.69-58.34,55.63-87.54,83.41c-7.28,6.92-15.13,7.7-13.43-3.54c0.96-6.37,5.01-12.91,8.08-18.49
				c8.5-15.44,18.08-30.18,27.63-44.97c13.62-21.12,27.51-42.07,40.96-63.3c13.37-21.1,26.29-42.5,37.66-64.75
				c5.71-11.16,10.97-22.54,15.74-34.13c2.35-5.72,4.57-11.49,6.64-17.32c2.01-5.67,4.08-11.34,5.28-17.25
				c2.33-11.53,2.48-24.19-3.93-34.52c-5.74-9.26-15.44-14.69-25.67-17.65c-11.4-3.3-23.51-4.01-35.28-4.89
				c-14.34-1.07-28.71-1.66-43.08-1.77c-13.99-0.1-27.95,0.5-41.9,1.57c-4.41,0.34-4.52,7.14,0,6.96
				c7.46-0.29,14.94-0.49,22.41-0.59c19.21,1.32,38.31,4.04,57.04,8.65c24.59,6.05,38.16,20.66,35.5,47
				c-1.88,18.66-9.62,37.89-17.45,54.8c-9.15,19.78-20.4,38.52-32.31,56.75c-23.94,36.65-50.82,71.56-70.85,110.63
				c-5.31,10.36-10.68,21.11-14.07,32.28c-3.33,10.98-3.87,23.38,2.77,33.27c6.38,9.5,17.26,13.75,28.24,9.86
				c5.83-2.07,10.93-5.56,15.95-9.09c4.83-3.4,9.6-6.88,14.31-10.45c37.31-28.26,70.73-61.1,105.25-92.6
				c17.09-15.6,34.49-30.91,52.8-45.09c22.1-17.12,45.97-35.56,73.54-42.51c14.8-3.73,31.98-0.94,35.53,16.21
				c2.76,13.36-3.43,27.16-8.66,39.15c-4.89,11.24-10.4,22.21-16.17,33.02c-11.68,21.89-24.46,43.19-35.65,65.34
				c-12.27,24.28-25.13,51.46-22.28,79.48c2.18,21.41,19.59,37.97,41.31,28.22c19.22-8.63,33.07-27.52,47.17-42.39
				c8.29-8.74,15.82-18.05,23.62-27.22c17.42-20.47,46.65-26.82,48.51,7.25c1.13,20.61,2.26,41.23,3.38,61.84
				c0.06,1.04,0.35,2.37,1.38,2.53c1.23,0.19,1.83-1.44,1.96-2.68c3.04-29.84,4.87-60.19,6.4-90.13
				C1001.58,486.73,1001.24,473.24,998.54,460.08z"/>
		</g>
	</g>
	<path id="M_00000178895919779387914240000001524416464530979755_" class="st16" d="M471.27,468.49c-4.64,2.38-11.77,2.07-15.9,0.91
		c-3.25-0.91-6.27-3.43-6.24-7.06c0.02-2.45,1.66-5.65,4.3-6.13c3.76-0.68,13.91-1.14,16.19,1.37c-1.58-1.74-2.5-6.17-3.45-8.49
		c-1.37-3.36-2.74-6.72-4.05-10.1c-2.63-6.79-5.07-13.68-6.85-20.76c-1.12-4.44-7.38-36.5,2.04-35.46
		c10.7,1.19,19.65,9.55,26.2,17.48c3.29,3.98,6.26,8.26,8.71,12.82c2.61,4.86,6.61,12.2,6.62,17.86
		c-0.02-13.04,0.08-26.08-0.05-39.12c-0.12-12,1.01-23.45,5.48-34.71c1.96-4.94,4.88-10.11,9.91-11.85
		c7.59-2.62,17.75,2.86,21.38,9.6c2.33,4.32,2.66,9.4,2.84,14.3c0.74,20.41-1.38,40.6-2.81,60.93c-0.01,0.2-0.03,0.39-0.04,0.59
		l30.1-33.53l-31.02,50.17c0,0-3.65,2.96-4.56-5.7c-2.41-22.91,4.06-46.67-1.23-69.22c-0.7-2.99-3.02-4.1-4.86-1.19
		c-14.03,22.12-16.17,48.83-18.26,74.29c-0.19,2.26-0.37,4.52-0.56,6.78c-0.06,0.7-0.13,1.43-0.46,2.05s-1.01,1.12-1.71,1.01
		c-0.55-0.08-0.99-0.5-1.35-0.93c-2.16-2.54-3.38-6.27-4.96-9.23c-1.8-3.39-3.68-6.75-5.64-10.05c-2.69-4.51-4.98-9.29-8.77-13.03
		c-2.89-2.85-6.57-5.02-10.6-5.52c-1.92-0.24-4.06-0.01-5.44,1.34c-1.73,1.68-1.68,4.45-1.29,6.83c1.61,9.83,6.89,18.48,9.37,28.05
		c0.92,3.56,2.48,8.97,0.5,12.47C474.02,466.67,472.77,467.72,471.27,468.49z"/>
	<g id="Manpasand">
		<path class="st17" d="M227.28,613.22v-62.54h1.3l30.14,28.84l30.14-28.84h1.3v62.54h-16.16v-28.05l-14.59,14.5h-1.39l-14.59-14.5
			v28.05H227.28z"/>
		<path class="st17" d="M295.64,613.22l30.75-62.54h1.39l30.75,62.54h-17.2l-2.87-7.04h-22.84l-2.87,7.04H295.64z M320.65,594.03
			h12.77l-6.34-15.55L320.65,594.03z"/>
		<path class="st17" d="M417.84,614.96l-37.69-30.66v28.92h-16.16v-62.54h1.3l37.69,31.62v-29.88h16.16v62.54H417.84z"/>
		<path class="st17" d="M428.7,613.22v-60.8h22.67c3.88,0,7.44,0.54,10.68,1.61c3.24,1.07,6.01,2.59,8.29,4.56s4.04,4.28,5.26,6.95
			c1.21,2.66,1.82,5.5,1.82,8.51c0,3.07-0.61,5.94-1.82,8.6c-1.22,2.66-2.98,4.95-5.3,6.86c-2.32,1.91-5.11,3.4-8.38,4.47
			c-3.27,1.07-6.88,1.61-10.81,1.61h-5.91v17.63H428.7z M445.2,582.91h4.34c2.08,0,4-0.33,5.73-1c1.74-0.66,3.05-1.75,3.95-3.26
			c0.9-1.51,1.35-3.07,1.35-4.69c0-0.98-0.25-2.16-0.74-3.52c-0.49-1.36-1.58-2.59-3.26-3.69c-1.68-1.1-4.03-1.65-7.04-1.65h-4.34
			V582.91z"/>
		<path class="st17" d="M471.6,613.22l30.75-62.54h1.39l30.75,62.54h-17.2l-2.87-7.04h-22.84l-2.87,7.04H471.6z M496.62,594.03
			h12.77l-6.34-15.55L496.62,594.03z"/>
		<path class="st17" d="M559.94,614.7c-5.33,0-10.28-1.12-14.85-3.34c-4.57-2.23-8.57-5.63-11.99-10.21l10.25-8.6
			c4.63,6.2,9.99,9.29,16.07,9.29c2.72,0,4.89-0.56,6.52-1.69c1.62-1.13,2.43-2.47,2.43-4.04c0-1.21-0.64-2.37-1.91-3.47
			c-1.27-1.1-3.82-2.23-7.64-3.39c-5.68-1.79-9.47-3.26-11.38-4.39c-1.91-1.13-3.5-2.37-4.78-3.73c-1.27-1.36-2.29-3.02-3.04-4.99
			c-0.75-1.97-1.13-4.2-1.13-6.69c0-5.91,2-10.51,5.99-13.81c4-3.3,9.38-4.95,16.16-4.95c4.98,0,9.5,0.93,13.55,2.78
			c4.05,1.85,7.32,4.37,9.81,7.56l-9.12,8.77c-4.05-4.17-8.71-6.25-13.98-6.25c-2.32,0-4.13,0.41-5.43,1.22
			c-1.3,0.81-1.95,2-1.95,3.56c0,1.1,0.48,2.08,1.43,2.95s4.01,2.17,9.16,3.91c5.67,1.85,9.86,3.6,12.55,5.25
			c2.69,1.65,4.7,3.68,6.04,6.08c1.33,2.4,2,5.11,2,8.12c0,3.01-0.61,5.76-1.82,8.25c-1.22,2.49-2.94,4.62-5.17,6.38
			c-2.23,1.77-4.88,3.11-7.95,4.04C566.68,614.24,563.41,614.7,559.94,614.7z"/>
		<path class="st17" d="M584.17,613.22l30.75-62.54h1.39l30.75,62.54h-17.2l-2.87-7.04h-22.84l-2.87,7.04H584.17z M609.18,594.03
			h12.77l-6.34-15.55L609.18,594.03z"/>
		<path class="st17" d="M706.37,614.96l-37.69-30.66v28.92h-16.16v-62.54h1.3l37.69,31.62v-29.88h16.16v62.54H706.37z"/>
		<path class="st17" d="M717.23,613.22v-60.8h21.28c5.04,0,9.7,0.77,13.98,2.3c4.28,1.54,7.93,3.66,10.94,6.38
			c3.01,2.72,5.33,5.97,6.95,9.73c1.62,3.76,2.43,7.76,2.43,11.99c0,4.23-0.81,8.22-2.43,11.99c-1.62,3.76-3.94,7.01-6.95,9.73
			c-3.01,2.72-6.66,4.85-10.94,6.38c-4.28,1.54-8.95,2.3-13.98,2.3H717.23z M733.73,599.33h4c5.61,0,10.07-1.56,13.37-4.69
			c3.3-3.13,4.95-7.09,4.95-11.9c0-4.86-1.65-8.83-4.95-11.9c-3.3-3.07-7.76-4.6-13.37-4.6h-4V599.33z"/>
	</g>
	<g id="Tagline">
		<path class="st18" d="M237.03,641.5l5.24-10.8h4.38l-7.64,14.39v8.39h-3.97v-8.39l-7.65-14.39h4.4L237.03,641.5z"/>
		<path class="st18" d="M247.03,644.86c0-1.66,0.33-3.15,0.99-4.48c0.66-1.33,1.58-2.35,2.77-3.07c1.19-0.71,2.56-1.07,4.1-1.07
			c2.28,0,4.14,0.74,5.56,2.21s2.19,3.42,2.31,5.85l0.01,0.89c0,1.67-0.32,3.16-0.96,4.47c-0.64,1.31-1.56,2.33-2.75,3.05
			c-1.19,0.72-2.57,1.08-4.14,1.08c-2.39,0-4.3-0.8-5.73-2.39c-1.43-1.59-2.15-3.71-2.15-6.36V644.86z M250.83,645.19
			c0,1.74,0.36,3.1,1.08,4.09c0.72,0.99,1.72,1.48,3,1.48c1.28,0,2.28-0.5,3-1.5c0.71-1,1.07-2.47,1.07-4.4
			c0-1.71-0.37-3.07-1.1-4.07c-0.74-1-1.73-1.5-3-1.5c-1.24,0-2.23,0.49-2.96,1.48C251.19,641.76,250.83,643.23,250.83,645.19z"/>
		<path class="st18" d="M276.24,651.83c-1.12,1.31-2.7,1.97-4.76,1.97c-1.84,0-3.23-0.54-4.17-1.61c-0.94-1.07-1.42-2.63-1.42-4.66
			v-10.97h3.8v10.92c0,2.15,0.89,3.22,2.68,3.22c1.85,0,3.09-0.66,3.74-1.99v-12.16h3.8v16.93h-3.58L276.24,651.83z"/>
		<path class="st18" d="M292.65,640.03c-0.5-0.08-1.02-0.13-1.55-0.13c-1.74,0-2.91,0.67-3.52,2v11.58h-3.8v-16.93h3.63l0.09,1.89
			c0.92-1.47,2.19-2.21,3.82-2.21c0.54,0,0.99,0.07,1.35,0.22L292.65,640.03z"/>
		<path class="st18" d="M320.86,650.53c-0.82,1.07-1.97,1.89-3.43,2.44c-1.46,0.55-3.12,0.83-4.98,0.83c-1.91,0-3.6-0.43-5.07-1.3
			s-2.6-2.1-3.4-3.72c-0.8-1.61-1.21-3.49-1.24-5.64v-1.78c0-3.44,0.82-6.13,2.47-8.06c1.65-1.93,3.95-2.9,6.9-2.9
			c2.53,0,4.55,0.63,6.04,1.89c1.49,1.26,2.39,3.06,2.69,5.42h-3.88c-0.44-2.74-2.03-4.11-4.77-4.11c-1.77,0-3.12,0.64-4.04,1.91
			c-0.92,1.28-1.4,3.15-1.43,5.62v1.75c0,2.46,0.52,4.37,1.56,5.73c1.04,1.36,2.48,2.04,4.33,2.04c2.02,0,3.46-0.46,4.32-1.38v-4.46
			h-4.69v-3h8.64V650.53z"/>
		<path class="st18" d="M334.95,653.48c-0.17-0.32-0.31-0.85-0.44-1.58c-1.21,1.26-2.69,1.89-4.44,1.89c-1.7,0-3.09-0.48-4.16-1.45
			c-1.07-0.97-1.61-2.17-1.61-3.6c0-1.8,0.67-3.19,2.01-4.15c1.34-0.96,3.26-1.45,5.75-1.45h2.33v-1.11c0-0.88-0.25-1.58-0.74-2.1
			c-0.49-0.53-1.24-0.79-2.24-0.79c-0.87,0-1.57,0.22-2.13,0.65c-0.55,0.43-0.83,0.98-0.83,1.65h-3.8c0-0.93,0.31-1.8,0.92-2.61
			c0.62-0.81,1.45-1.44,2.51-1.9c1.06-0.46,2.24-0.69,3.54-0.69c1.98,0,3.56,0.5,4.74,1.49c1.18,1,1.78,2.4,1.81,4.2v7.64
			c0,1.52,0.21,2.74,0.64,3.65v0.27H334.95z M330.78,650.75c0.75,0,1.46-0.18,2.12-0.55c0.66-0.36,1.16-0.85,1.49-1.47v-3.19h-2.05
			c-1.41,0-2.47,0.25-3.18,0.74c-0.71,0.49-1.06,1.18-1.06,2.08c0,0.73,0.24,1.31,0.73,1.74
			C329.31,650.53,329.96,650.75,330.78,650.75z"/>
		<path class="st18" d="M346.94,632.44v4.11h2.99v2.82h-2.99v9.45c0,0.65,0.13,1.11,0.38,1.4c0.26,0.29,0.71,0.43,1.37,0.43
			c0.44,0,0.88-0.05,1.33-0.16v2.94c-0.87,0.24-1.7,0.36-2.5,0.36c-2.92,0-4.38-1.61-4.38-4.83v-9.59h-2.79v-2.82h2.79v-4.11H346.94
			z"/>
		<path class="st18" d="M360.28,653.8c-2.41,0-4.36-0.76-5.86-2.28c-1.5-1.52-2.24-3.54-2.24-6.06v-0.47c0-1.69,0.33-3.2,0.98-4.53
			c0.65-1.33,1.57-2.36,2.75-3.11c1.18-0.74,2.49-1.11,3.94-1.11c2.31,0,4.09,0.74,5.34,2.21c1.26,1.47,1.89,3.55,1.89,6.24v1.53
			h-11.06c0.11,1.4,0.58,2.5,1.4,3.32s1.85,1.22,3.09,1.22c1.74,0,3.16-0.7,4.26-2.11l2.05,1.96c-0.68,1.01-1.58,1.8-2.71,2.35
			C362.96,653.52,361.69,653.8,360.28,653.8z M359.83,639.29c-1.04,0-1.89,0.37-2.53,1.1c-0.64,0.73-1.05,1.75-1.23,3.05h7.24v-0.28
			c-0.08-1.27-0.42-2.23-1.02-2.89C361.71,639.62,360.88,639.29,359.83,639.29z"/>
		<path class="st18" d="M384.89,648.24l2.69-11.69h3.71l-4.61,16.93h-3.13l-3.63-11.62l-3.57,11.62h-3.13l-4.63-16.93h3.71
			l2.74,11.56l3.47-11.56h2.86L384.89,648.24z"/>
		<path class="st18" d="M403.95,653.48c-0.17-0.32-0.31-0.85-0.44-1.58c-1.21,1.26-2.69,1.89-4.44,1.89c-1.7,0-3.09-0.48-4.16-1.45
			c-1.07-0.97-1.61-2.17-1.61-3.6c0-1.8,0.67-3.19,2.01-4.15c1.34-0.96,3.26-1.45,5.75-1.45h2.33v-1.11c0-0.88-0.25-1.58-0.74-2.1
			c-0.49-0.53-1.24-0.79-2.24-0.79c-0.87,0-1.57,0.22-2.13,0.65c-0.55,0.43-0.83,0.98-0.83,1.65h-3.8c0-0.93,0.31-1.8,0.92-2.61
			c0.62-0.81,1.45-1.44,2.51-1.9c1.06-0.46,2.24-0.69,3.54-0.69c1.98,0,3.56,0.5,4.74,1.49s1.78,2.4,1.81,4.2v7.64
			c0,1.52,0.21,2.74,0.64,3.65v0.27H403.95z M399.77,650.75c0.75,0,1.46-0.18,2.12-0.55c0.66-0.36,1.16-0.85,1.49-1.47v-3.19h-2.05
			c-1.41,0-2.47,0.25-3.18,0.74c-0.71,0.49-1.06,1.18-1.06,2.08c0,0.73,0.24,1.31,0.73,1.74
			C398.31,650.53,398.96,650.75,399.77,650.75z"/>
		<path class="st18" d="M416.85,648.04l3.44-11.48h4.05l-6.73,19.49c-1.03,2.85-2.79,4.27-5.26,4.27c-0.55,0-1.16-0.09-1.83-0.28
			v-2.96l0.72,0.05c0.96,0,1.68-0.17,2.17-0.52c0.48-0.35,0.87-0.94,1.15-1.76l0.55-1.45l-5.95-16.84h4.1L416.85,648.04z"/>
		<path class="st18" d="M450.4,633.9h-7.1v19.59h-3.93V633.9h-7.04v-3.19h18.07V633.9z"/>
		<path class="st18" d="M449.05,644.86c0-1.66,0.33-3.15,0.99-4.48c0.66-1.33,1.58-2.35,2.77-3.07c1.19-0.71,2.56-1.07,4.1-1.07
			c2.29,0,4.14,0.74,5.56,2.21s2.19,3.42,2.31,5.85l0.01,0.89c0,1.67-0.32,3.16-0.96,4.47c-0.64,1.31-1.56,2.33-2.75,3.05
			c-1.19,0.72-2.57,1.08-4.14,1.08c-2.39,0-4.3-0.8-5.73-2.39s-2.15-3.71-2.15-6.36V644.86z M452.86,645.19
			c0,1.74,0.36,3.1,1.08,4.09c0.72,0.99,1.72,1.48,3,1.48c1.28,0,2.28-0.5,3-1.5s1.07-2.47,1.07-4.4c0-1.71-0.37-3.07-1.1-4.07
			c-0.73-1-1.73-1.5-3-1.5c-1.24,0-2.22,0.49-2.96,1.48C453.22,641.76,452.86,643.23,452.86,645.19z"/>
		<path class="st18" d="M480.53,653.48h-3.94v-22.78h3.94V653.48z"/>
		<path class="st18" d="M488.56,636.56l0.11,1.96c1.25-1.51,2.89-2.27,4.93-2.27c3.52,0,5.32,2.02,5.38,6.05v11.19h-3.8v-10.97
			c0-1.07-0.23-1.87-0.7-2.39c-0.47-0.52-1.22-0.77-2.28-0.77c-1.54,0-2.68,0.69-3.43,2.08v12.05h-3.8v-16.93H488.56z"/>
		<path class="st18" d="M502.14,644.9c0-2.61,0.6-4.7,1.81-6.28c1.21-1.58,2.83-2.37,4.87-2.37c1.79,0,3.24,0.63,4.35,1.88v-8.67
			h3.8v24.03h-3.44l-0.19-1.75c-1.14,1.38-2.66,2.07-4.55,2.07c-1.98,0-3.59-0.8-4.81-2.39
			C502.75,649.81,502.14,647.64,502.14,644.9z M505.94,645.22c0,1.72,0.33,3.07,0.99,4.03c0.66,0.96,1.6,1.45,2.82,1.45
			c1.55,0,2.69-0.69,3.41-2.08v-7.23c-0.7-1.36-1.83-2.03-3.38-2.03c-1.23,0-2.18,0.49-2.85,1.46
			C506.27,641.8,505.94,643.26,505.94,645.22z"/>
		<path class="st18" d="M520.94,632.16c0-0.58,0.18-1.07,0.55-1.45c0.37-0.39,0.9-0.58,1.59-0.58c0.69,0,1.22,0.19,1.6,0.58
			c0.38,0.39,0.56,0.87,0.56,1.45c0,0.57-0.19,1.05-0.56,1.43c-0.38,0.38-0.91,0.57-1.6,0.57c-0.69,0-1.22-0.19-1.59-0.57
			S520.94,632.73,520.94,632.16z M524.98,653.48h-3.8v-16.93h3.8V653.48z"/>
		<path class="st18" d="M539.23,653.48c-0.17-0.32-0.31-0.85-0.44-1.58c-1.21,1.26-2.69,1.89-4.44,1.89c-1.7,0-3.09-0.48-4.16-1.45
			c-1.08-0.97-1.61-2.17-1.61-3.6c0-1.8,0.67-3.19,2.01-4.15c1.34-0.96,3.26-1.45,5.75-1.45h2.33v-1.11c0-0.88-0.25-1.58-0.73-2.1
			c-0.49-0.53-1.24-0.79-2.24-0.79c-0.87,0-1.57,0.22-2.13,0.65c-0.55,0.43-0.83,0.98-0.83,1.65h-3.8c0-0.93,0.31-1.8,0.92-2.61
			c0.62-0.81,1.45-1.44,2.51-1.9c1.06-0.46,2.24-0.69,3.54-0.69c1.98,0,3.56,0.5,4.74,1.49c1.18,1,1.78,2.4,1.82,4.2v7.64
			c0,1.52,0.21,2.74,0.64,3.65v0.27H539.23z M535.05,650.75c0.75,0,1.46-0.18,2.12-0.55c0.66-0.36,1.16-0.85,1.49-1.47v-3.19h-2.05
			c-1.41,0-2.47,0.25-3.18,0.74c-0.71,0.49-1.06,1.18-1.06,2.08c0,0.73,0.24,1.31,0.73,1.74
			C533.59,650.53,534.24,650.75,535.05,650.75z"/>
		<path class="st18" d="M549.98,636.56l0.11,1.96c1.25-1.51,2.89-2.27,4.93-2.27c3.52,0,5.32,2.02,5.38,6.05v11.19h-3.8v-10.97
			c0-1.07-0.23-1.87-0.7-2.39c-0.47-0.52-1.22-0.77-2.28-0.77c-1.54,0-2.68,0.69-3.43,2.08v12.05h-3.8v-16.93H549.98z"/>
		<path class="st18" d="M585.93,643.32h-9.35v7.01h10.93v3.16h-14.89v-22.78h14.78v3.19h-10.83v6.29h9.35V643.32z"/>
		<path class="st18" d="M593.9,636.56l0.11,1.96c1.25-1.51,2.89-2.27,4.93-2.27c3.52,0,5.32,2.02,5.38,6.05v11.19h-3.8v-10.97
			c0-1.07-0.23-1.87-0.7-2.39c-0.47-0.52-1.22-0.77-2.28-0.77c-1.54,0-2.68,0.69-3.43,2.08v12.05h-3.8v-16.93H593.9z"/>
		<path class="st18" d="M612.95,632.44v4.11h2.99v2.82h-2.99v9.45c0,0.65,0.13,1.11,0.38,1.4c0.26,0.29,0.71,0.43,1.37,0.43
			c0.44,0,0.88-0.05,1.33-0.16v2.94c-0.86,0.24-1.7,0.36-2.5,0.36c-2.92,0-4.38-1.61-4.38-4.83v-9.59h-2.79v-2.82h2.79v-4.11H612.95
			z"/>
		<path class="st18" d="M626.3,653.8c-2.41,0-4.36-0.76-5.86-2.28c-1.5-1.52-2.25-3.54-2.25-6.06v-0.47c0-1.69,0.33-3.2,0.98-4.53
			c0.65-1.33,1.57-2.36,2.75-3.11c1.18-0.74,2.49-1.11,3.94-1.11c2.31,0,4.09,0.74,5.34,2.21c1.26,1.47,1.89,3.55,1.89,6.24v1.53
			h-11.06c0.11,1.4,0.58,2.5,1.4,3.32s1.85,1.22,3.09,1.22c1.74,0,3.16-0.7,4.26-2.11l2.05,1.96c-0.68,1.01-1.58,1.8-2.71,2.35
			C628.98,653.52,627.71,653.8,626.3,653.8z M625.85,639.29c-1.04,0-1.89,0.37-2.53,1.1c-0.64,0.73-1.05,1.75-1.23,3.05h7.24v-0.28
			c-0.08-1.27-0.42-2.23-1.02-2.89C627.72,639.62,626.9,639.29,625.85,639.29z"/>
		<path class="st18" d="M644.9,640.03c-0.5-0.08-1.02-0.13-1.55-0.13c-1.74,0-2.91,0.67-3.52,2v11.58h-3.8v-16.93h3.63l0.1,1.89
			c0.92-1.47,2.19-2.21,3.82-2.21c0.54,0,0.99,0.07,1.35,0.22L644.9,640.03z"/>
		<path class="st18" d="M652.85,632.44v4.11h2.99v2.82h-2.99v9.45c0,0.65,0.13,1.11,0.38,1.4c0.26,0.29,0.71,0.43,1.37,0.43
			c0.44,0,0.88-0.05,1.33-0.16v2.94c-0.87,0.24-1.7,0.36-2.5,0.36c-2.92,0-4.38-1.61-4.38-4.83v-9.59h-2.79v-2.82h2.79v-4.11H652.85
			z"/>
		<path class="st18" d="M668.85,653.48c-0.17-0.32-0.31-0.85-0.44-1.58c-1.21,1.26-2.69,1.89-4.44,1.89c-1.7,0-3.09-0.48-4.16-1.45
			c-1.08-0.97-1.61-2.17-1.61-3.6c0-1.8,0.67-3.19,2.01-4.15c1.34-0.96,3.26-1.45,5.75-1.45h2.33v-1.11c0-0.88-0.25-1.58-0.73-2.1
			c-0.49-0.53-1.24-0.79-2.24-0.79c-0.87,0-1.57,0.22-2.13,0.65c-0.55,0.43-0.83,0.98-0.83,1.65h-3.8c0-0.93,0.31-1.8,0.92-2.61
			c0.62-0.81,1.45-1.44,2.51-1.9c1.06-0.46,2.24-0.69,3.54-0.69c1.98,0,3.56,0.5,4.74,1.49s1.78,2.4,1.82,4.2v7.64
			c0,1.52,0.21,2.74,0.64,3.65v0.27H668.85z M664.68,650.75c0.75,0,1.46-0.18,2.12-0.55c0.66-0.36,1.16-0.85,1.49-1.47v-3.19h-2.05
			c-1.41,0-2.47,0.25-3.18,0.74c-0.71,0.49-1.06,1.18-1.06,2.08c0,0.73,0.24,1.31,0.73,1.74
			C663.21,650.53,663.86,650.75,664.68,650.75z"/>
		<path class="st18" d="M676.08,632.16c0-0.58,0.18-1.07,0.55-1.45c0.37-0.39,0.9-0.58,1.59-0.58c0.69,0,1.22,0.19,1.6,0.58
			c0.38,0.39,0.56,0.87,0.56,1.45c0,0.57-0.19,1.05-0.56,1.43c-0.38,0.38-0.91,0.57-1.6,0.57c-0.69,0-1.22-0.19-1.59-0.57
			S676.08,632.73,676.08,632.16z M680.12,653.48h-3.8v-16.93h3.8V653.48z"/>
		<path class="st18" d="M687.79,636.56l0.11,1.96c1.25-1.51,2.89-2.27,4.93-2.27c3.52,0,5.32,2.02,5.38,6.05v11.19h-3.8v-10.97
			c0-1.07-0.23-1.87-0.69-2.39c-0.47-0.52-1.22-0.77-2.28-0.77c-1.53,0-2.67,0.69-3.43,2.08v12.05h-3.8v-16.93H687.79z"/>
		<path class="st18" d="M705.65,636.56l0.11,1.77c1.19-1.39,2.82-2.08,4.88-2.08c2.26,0,3.81,0.87,4.65,2.6
			c1.23-1.73,2.96-2.6,5.19-2.6c1.87,0,3.26,0.52,4.17,1.55c0.91,1.03,1.38,2.56,1.4,4.57v11.12h-3.8v-11.01
			c0-1.07-0.23-1.86-0.7-2.36s-1.25-0.75-2.33-0.75c-0.87,0-1.57,0.23-2.12,0.7c-0.55,0.46-0.93,1.07-1.15,1.82l0.02,11.61h-3.8
			v-11.14c-0.05-1.99-1.07-2.99-3.05-2.99c-1.52,0-2.6,0.62-3.24,1.86v12.27h-3.8v-16.93H705.65z"/>
		<path class="st18" d="M737.41,653.8c-2.41,0-4.36-0.76-5.86-2.28c-1.5-1.52-2.25-3.54-2.25-6.06v-0.47c0-1.69,0.33-3.2,0.98-4.53
			c0.65-1.33,1.57-2.36,2.75-3.11c1.18-0.74,2.49-1.11,3.94-1.11c2.31,0,4.09,0.74,5.34,2.21c1.26,1.47,1.89,3.55,1.89,6.24v1.53
			h-11.06c0.11,1.4,0.58,2.5,1.4,3.32s1.85,1.22,3.09,1.22c1.74,0,3.16-0.7,4.26-2.11l2.05,1.96c-0.68,1.01-1.58,1.8-2.71,2.35
			C740.09,653.52,738.82,653.8,737.41,653.8z M736.96,639.29c-1.04,0-1.89,0.37-2.53,1.1c-0.64,0.73-1.05,1.75-1.23,3.05h7.24v-0.28
			c-0.08-1.27-0.42-2.23-1.02-2.89C738.84,639.62,738.01,639.29,736.96,639.29z"/>
		<path class="st18" d="M750.68,636.56l0.11,1.96c1.25-1.51,2.89-2.27,4.93-2.27c3.52,0,5.32,2.02,5.38,6.05v11.19h-3.8v-10.97
			c0-1.07-0.23-1.87-0.7-2.39c-0.47-0.52-1.22-0.77-2.28-0.77c-1.54,0-2.68,0.69-3.43,2.08v12.05h-3.8v-16.93H750.68z"/>
		<path class="st18" d="M769.73,632.44v4.11h2.99v2.82h-2.99v9.45c0,0.65,0.13,1.11,0.38,1.4c0.26,0.29,0.71,0.43,1.37,0.43
			c0.44,0,0.88-0.05,1.33-0.16v2.94c-0.86,0.24-1.7,0.36-2.5,0.36c-2.92,0-4.38-1.61-4.38-4.83v-9.59h-2.79v-2.82h2.79v-4.11H769.73
			z"/>
	</g>
	<rect id="Line" x="227.18" y="668.36" class="st17" width="545.63" height="2.74"/>
</g>
</svg>
